# 3ds Max Wavefront OBJ Exporter v0.97b - (c)2007 guruware
# File Created: 25.05.2016 23:18:55

mtllib Banana_03.mtl

#
# object Banana_03
#

v  0.0553 -0.0426 -0.0084
v  0.0512 -0.0430 0.0092
v  0.0410 -0.0489 -0.0007
v  0.0677 -0.0358 -0.0009
v  0.0768 -0.0273 0.0082
v  0.0895 -0.0116 0.0091
v  0.0702 -0.0194 0.0162
v  0.0881 -0.0168 -0.0014
v  0.0536 -0.0312 0.0161
v  0.0475 -0.0244 0.0175
v  0.0641 -0.0352 0.0097
v  0.0334 -0.0499 0.0086
v  0.0275 -0.0419 0.0158
v  0.0250 -0.0531 -0.0047
v  0.0157 -0.0530 0.0083
v  0.0133 -0.0535 -0.0082
v  0.0020 -0.0536 0.0096
v  0.0074 -0.0355 0.0179
v  -0.0027 -0.0443 0.0164
v  -0.0023 -0.0543 -0.0019
v  0.0391 -0.0124 0.0125
v  0.0176 -0.0241 0.0152
v  0.0202 -0.0155 0.0098
v  0.0023 -0.0163 0.0110
v  -0.0175 -0.0220 0.0166
v  -0.0160 -0.0510 0.0088
v  -0.0213 -0.0432 0.0144
v  -0.0285 -0.0305 0.0193
v  -0.0202 -0.0501 -0.0070
v  -0.0313 -0.0470 0.0085
v  -0.0422 -0.0422 0.0093
v  -0.0436 -0.0288 0.0179
v  -0.0365 -0.0453 -0.0064
v  -0.0189 -0.0120 0.0109
v  -0.0512 -0.0074 0.0164
v  -0.0555 -0.0270 0.0150
v  -0.0582 -0.0342 -0.0058
v  -0.0503 -0.0398 -0.0048
v  -0.0613 -0.0317 0.0086
v  -0.0743 -0.0185 0.0099
v  -0.0680 -0.0120 0.0153
v  -0.0764 -0.0183 -0.0031
v  -0.0828 -0.0047 0.0084
v  0.0846 0.0039 0.0127
v  0.0693 -0.0046 0.0160
v  0.0798 -0.0082 0.0156
v  0.0946 0.0027 0.0076
v  0.0965 0.0021 -0.0023
v  0.0458 -0.0011 -0.0013
v  0.0588 -0.0002 0.0111
v  0.0647 0.0100 0.0027
v  0.0967 0.0171 0.0064
v  0.0919 0.0302 0.0045
v  0.0804 0.0170 0.0068
v  0.0949 0.0266 0.0034
v  0.0776 0.0216 -0.0015
v  0.0339 -0.0064 -0.0030
v  0.0095 -0.0130 -0.0066
v  -0.0099 -0.0092 -0.0029
v  -0.0259 -0.0045 -0.0026
v  -0.0407 -0.0008 0.0097
v  -0.0392 0.0027 -0.0024
v  -0.0602 0.0144 0.0085
v  -0.0580 0.0159 -0.0016
v  -0.0743 0.0084 0.0132
v  -0.0837 0.0109 0.0067
v  -0.0838 0.0020 -0.0046
v  -0.0721 0.0199 0.0042
v  -0.0876 0.0274 0.0063
v  0.0766 -0.0279 -0.0095
v  0.0655 -0.0215 -0.0186
v  0.0820 -0.0129 -0.0153
v  0.0515 -0.0349 -0.0164
v  0.0535 -0.0199 -0.0191
v  0.0291 -0.0338 -0.0190
v  0.0361 -0.0488 -0.0097
v  0.0184 -0.0456 -0.0157
v  -0.0008 -0.0475 -0.0141
v  0.0068 -0.0338 -0.0192
v  0.0353 -0.0160 -0.0158
v  -0.0005 -0.0194 -0.0154
v  -0.0103 -0.0422 -0.0169
v  -0.0183 -0.0288 -0.0193
v  -0.0259 -0.0403 -0.0155
v  -0.0436 -0.0329 -0.0155
v  -0.0384 -0.0066 -0.0139
v  -0.0409 -0.0182 -0.0184
v  -0.0595 -0.0082 -0.0156
v  -0.0649 -0.0213 -0.0109
v  0.1004 0.0199 0.0001
v  0.0973 0.0260 -0.0044
v  0.0957 0.0098 -0.0082
v  0.0932 -0.0069 -0.0082
v  0.0957 0.0311 0.0002
v  0.0767 -0.0017 -0.0185
v  0.0622 0.0103 -0.0035
v  0.0571 -0.0029 -0.0155
v  0.0817 0.0170 -0.0102
v  0.0895 0.0267 -0.0073
v  0.0884 0.0296 0.0002
v  -0.0617 0.0110 -0.0114
v  -0.0721 0.0071 -0.0121
v  -0.0869 0.0198 -0.0018
v  -0.0742 0.0181 -0.0063
v  -0.0709 0.0215 -0.0014
v  -0.0842 0.0349 -0.0044
v  -0.0807 0.0405 0.0000
v  -0.0828 0.0419 0.0053
v  -0.0873 0.0543 0.0008
v  -0.0936 0.0372 0.0004
v  -0.1004 0.0455 0.0042
v  -0.0912 0.0543 0.0071
v  -0.0925 0.0515 -0.0024
v  -0.0999 0.0528 0.0047
# 114 vertices

vn 0.4136 -0.8298 -0.3746
vn 0.3626 -0.7835 0.5046
vn 0.3336 -0.9427 0.0073
vn 0.5571 -0.8298 0.0322
vn 0.6052 -0.6561 0.4508
vn 0.7524 -0.3665 0.5473
vn 0.2546 -0.2404 0.9367
vn 0.8067 -0.5848 -0.0851
vn 0.1810 -0.3440 0.9214
vn -0.0199 0.0574 0.9982
vn 0.4444 -0.6989 0.5605
vn 0.2216 -0.8459 0.4850
vn 0.1001 -0.4100 0.9066
vn 0.1492 -0.9631 -0.2242
vn 0.0956 -0.8952 0.4352
vn 0.0460 -0.9156 -0.3995
vn -0.0111 -0.8781 0.4784
vn 0.0310 -0.0171 0.9994
vn -0.0281 -0.4330 0.9010
vn -0.0935 -0.9814 -0.1676
vn -0.2411 0.6060 0.7581
vn -0.0402 0.3938 0.9183
vn -0.1597 0.7928 0.5882
vn 0.0995 0.7964 0.5965
vn 0.1021 0.3512 0.9307
vn -0.2018 -0.8847 0.4202
vn -0.1641 -0.5382 0.8267
vn -0.0591 -0.1411 0.9882
vn -0.2213 -0.9018 -0.3711
vn -0.2869 -0.8739 0.3925
vn -0.3559 -0.7963 0.4892
vn -0.1706 -0.2843 0.9434
vn -0.3329 -0.8738 -0.3545
vn 0.2411 0.7337 0.6353
vn 0.0755 0.2543 0.9642
vn -0.3270 -0.4144 0.8493
vn -0.5676 -0.7256 -0.3890
vn -0.4556 -0.8432 -0.2853
vn -0.5546 -0.7231 0.4118
vn -0.6766 -0.5116 0.5296
vn -0.2976 -0.1153 0.9477
vn -0.7827 -0.5242 -0.3356
vn -0.8543 -0.2159 0.4729
vn 0.2325 0.2006 0.9517
vn -0.0619 0.2628 0.9629
vn 0.3149 -0.0552 0.9475
vn 0.7927 -0.1427 0.5926
vn 0.9726 -0.2298 -0.0342
vn -0.4845 0.8740 0.0358
vn -0.3567 0.6099 0.7077
vn -0.5184 0.7460 0.4179
vn 0.6152 0.1012 0.7819
vn 0.0303 0.7313 0.6813
vn -0.2747 0.5409 0.7950
vn 0.7706 0.3337 0.5430
vn -0.6018 0.7982 -0.0275
vn -0.3406 0.9365 -0.0841
vn -0.0443 0.9748 -0.2188
vn 0.2392 0.9670 -0.0878
vn 0.3681 0.9247 -0.0967
vn 0.3927 0.6854 0.6132
vn 0.5242 0.8397 -0.1417
vn 0.3246 0.7229 0.6099
vn 0.4697 0.8691 -0.1551
vn -0.2451 0.3248 0.9135
vn -0.7632 0.0684 0.6425
vn -0.8527 -0.1211 -0.5082
vn 0.3351 0.6073 0.7204
vn -0.4910 -0.2157 0.8441
vn 0.6117 -0.6563 -0.4418
vn 0.2137 -0.2712 -0.9385
vn 0.5284 -0.3090 -0.7907
vn 0.2019 -0.4401 -0.8750
vn -0.0398 0.0337 -0.9986
vn 0.0525 -0.1503 -0.9872
vn 0.2223 -0.7996 -0.5579
vn 0.0767 -0.5320 -0.8433
vn -0.0578 -0.6492 -0.7584
vn -0.0034 -0.0465 -0.9989
vn -0.1751 0.4903 -0.8538
vn 0.0499 0.5516 -0.8326
vn -0.0872 -0.4574 -0.8850
vn -0.0272 0.0157 -0.9995
vn -0.1811 -0.4980 -0.8480
vn -0.2661 -0.4252 -0.8651
vn 0.2272 0.5485 -0.8047
vn -0.0464 0.0836 -0.9954
vn -0.2029 0.0210 -0.9790
vn -0.4798 -0.3536 -0.8029
vn 0.9881 0.1331 0.0774
vn 0.6940 0.5096 -0.5086
vn 0.6922 0.0211 -0.7214
vn 0.8283 -0.3498 -0.4377
vn 0.5601 0.8229 -0.0953
vn 0.1499 0.1724 -0.9736
vn -0.5570 0.8077 -0.1930
vn -0.3146 0.5168 -0.7962
vn -0.1495 0.5027 -0.8515
vn -0.0286 0.6661 -0.7453
vn -0.4078 0.9096 -0.0787
vn 0.1892 0.5645 -0.8034
vn -0.3454 0.1676 -0.9234
vn -0.8456 -0.1760 -0.5040
vn -0.0129 0.4075 -0.9131
vn 0.6536 0.7155 -0.2470
vn 0.0062 0.1466 -0.9892
vn 0.8228 0.4541 -0.3417
vn 0.6387 0.2589 0.7246
vn 0.4805 0.8298 -0.2837
vn -0.7437 -0.3510 -0.5689
vn -0.9674 -0.1763 0.1818
vn 0.0827 0.7331 0.6751
vn -0.2221 0.4748 -0.8516
vn -0.8021 0.5558 0.2183
# 114 vertex normals

vt 0.3532 0.2652 0.0000
vt 0.4044 0.2088 0.0000
vt 0.4195 0.2674 0.0000
vt 0.3229 0.2115 0.0000
vt 0.3087 0.1556 0.0000
vt 0.2421 0.1206 0.0000
vt 0.3338 0.1105 0.0000
vt 0.2340 0.1616 0.0000
vt 0.4066 0.1515 0.0000
vt 0.4382 0.1260 0.0000
vt 0.3595 0.1800 0.0000
vt 0.4641 0.2512 0.0000
vt 0.5010 0.2185 0.0000
vt 0.4599 0.3172 0.0000
vt 0.5212 0.2930 0.0000
vt 0.4763 0.3509 0.0000
vt 0.5607 0.3184 0.0000
vt 0.5926 0.2349 0.0000
vt 0.5999 0.2904 0.0000
vt 0.5363 0.3641 0.0000
vt 0.4793 0.0747 0.0000
vt 0.5784 0.1690 0.0000
vt 0.5868 0.1253 0.0000
vt 0.6655 0.1955 0.0000
vt 0.7120 0.2919 0.0000
vt 0.6050 0.3612 0.0000
vt 0.6429 0.3511 0.0000
vt 0.7071 0.3505 0.0000
vt 0.5763 0.4251 0.0000
vt 0.6438 0.4043 0.0000
vt 0.6735 0.4309 0.0000
vt 0.7330 0.4089 0.0000
vt 0.6164 0.4666 0.0000
vt 0.7578 0.2762 0.0000
vt 0.8180 0.4428 0.0000
vt 0.7500 0.4589 0.0000
vt 0.6721 0.5191 0.0000
vt 0.6548 0.4959 0.0000
vt 0.7297 0.4918 0.0000
vt 0.7707 0.5479 0.0000
vt 0.7978 0.5209 0.0000
vt 0.7374 0.5869 0.0000
vt 0.8082 0.5957 0.0000
vt 0.2256 0.0612 0.0000
vt 0.3178 0.0568 0.0000
vt 0.2779 0.0871 0.0000
vt 0.1889 0.1001 0.0000
vt 0.1660 0.1397 0.0000
vt 0.1778 0.4022 0.0000
vt 0.0947 0.3986 0.0000
vt 0.0966 0.3296 0.0000
vt 0.3506 0.0192 0.0000
vt 0.1360 0.0742 0.0000
vt 0.0884 0.0436 0.0000
vt 0.1951 0.0113 0.0000
vt 0.0860 0.0720 0.0000
vt 0.0318 0.2755 0.0000
vt 0.0643 0.2464 0.0000
vt 0.1677 0.4912 0.0000
vt 0.2354 0.4513 0.0000
vt 0.2537 0.5505 0.0000
vt 0.3292 0.6167 0.0000
vt 0.3452 0.5272 0.0000
vt 0.4227 0.6057 0.0000
vt 0.4229 0.6844 0.0000
vt 0.4974 0.6562 0.0000
vt 0.5379 0.7425 0.0000
vt 0.8438 0.3830 0.0000
vt 0.5654 0.6958 0.0000
vt 0.9129 0.5130 0.0000
vt 0.6685 0.7429 0.0000
vt 0.6539 0.7858 0.0000
vt 0.8672 0.5721 0.0000
vt 0.8516 0.6361 0.0000
vt 0.7882 0.6523 0.0000
vt 0.9164 0.6093 0.0000
vt 0.8920 0.6980 0.0000
vt 0.2679 0.2152 0.0000
vt 0.2620 0.2796 0.0000
vt 0.2105 0.2251 0.0000
vt 0.3318 0.3047 0.0000
vt 0.2730 0.3263 0.0000
vt 0.3734 0.3833 0.0000
vt 0.4155 0.3093 0.0000
vt 0.4355 0.3776 0.0000
vt 0.4969 0.4119 0.0000
vt 0.4323 0.4480 0.0000
vt 0.2924 0.4081 0.0000
vt 0.4178 0.5197 0.0000
vt 0.5098 0.4473 0.0000
vt 0.5109 0.5142 0.0000
vt 0.5563 0.4776 0.0000
vt 0.6026 0.5282 0.0000
vt 0.5662 0.6324 0.0000
vt 0.5866 0.5869 0.0000
vt 0.6639 0.6313 0.0000
vt 0.6849 0.5799 0.0000
vt 0.1021 0.1019 0.0000
vt 0.0620 0.1231 0.0000
vt 0.1256 0.1536 0.0000
vt 0.1873 0.1751 0.0000
vt 0.0621 0.0727 0.0000
vt 0.1749 0.2472 0.0000
vt 0.1216 0.3210 0.0000
vt 0.2027 0.3303 0.0000
vt 0.0975 0.2232 0.0000
vt 0.0609 0.1751 0.0000
vt 0.0118 0.1845 0.0000
vt 0.0357 0.1819 0.0000
vt 0.0231 0.1509 0.0000
vt 0.6844 0.7045 0.0000
vt 0.7299 0.6828 0.0000
vt 0.8348 0.7026 0.0000
vt 0.7573 0.7283 0.0000
vt 0.7243 0.7863 0.0000
vt 0.7379 0.7598 0.0000
vt 0.8376 0.7720 0.0000
vt 0.8268 0.8080 0.0000
vt 0.9604 0.7133 0.0000
vt 0.8223 0.8344 0.0000
vt 0.8814 0.8511 0.0000
vt 0.8912 0.7622 0.0000
vt 0.9338 0.7896 0.0000
vt 0.9882 0.7733 0.0000
vt 0.8692 0.8820 0.0000
vt 0.9094 0.8618 0.0000
vt 0.8980 0.8282 0.0000
vt 0.9012 0.9074 0.0000
vt 0.9435 0.8207 0.0000
vt 0.8878 0.9373 0.0000
# 130 texture coords

g Banana_03
usemtl _Banana_03default
s 1
f 1/1/1 2/2/2 3/3/3 
f 1/1/1 4/4/4 2/2/2 
f 5/5/5 6/6/6 7/7/7 
f 6/6/6 5/5/5 8/8/8 
f 9/9/9 7/7/7 10/10/10 
f 7/7/7 11/11/11 5/5/5 
f 11/11/11 9/9/9 2/2/2 
f 2/2/2 4/4/4 11/11/11 
f 7/7/7 9/9/9 11/11/11 
f 11/11/11 4/4/4 5/5/5 
f 3/3/3 2/2/2 12/12/12 
f 13/13/13 12/12/12 2/2/2 
f 12/12/12 14/14/14 3/3/3 
f 14/14/14 12/12/12 15/15/15 
f 16/16/16 15/15/15 17/17/17 
f 13/13/13 15/15/15 12/12/12 
f 13/13/13 17/17/17 15/15/15 
f 18/18/18 19/19/19 13/13/13 
f 14/14/14 15/15/15 16/16/16 
f 19/19/19 17/17/17 13/13/13 
f 17/17/17 20/20/20 16/16/16 
f 10/10/10 21/21/21 22/22/22 
f 22/22/22 18/18/18 10/10/10 
f 9/9/9 13/13/13 2/2/2 
f 18/18/18 13/13/13 10/10/10 
f 9/9/9 10/10/10 13/13/13 
f 23/23/23 24/24/24 22/22/22 
f 25/25/25 22/22/22 24/24/24 
f 17/17/17 19/19/19 26/26/26 
f 26/26/26 19/19/19 27/27/27 
f 28/28/28 27/27/27 19/19/19 
f 20/20/20 17/17/17 26/26/26 
f 20/20/20 26/26/26 29/29/29 
f 30/30/30 27/27/27 31/31/31 
f 28/28/28 32/32/32 31/31/31 
f 27/27/27 30/30/30 26/26/26 
f 31/31/31 27/27/27 28/28/28 
f 33/33/33 26/26/26 30/30/30 
f 30/30/30 31/31/31 33/33/33 
f 18/18/18 22/22/22 25/25/25 
f 25/25/25 28/28/28 18/18/18 
f 19/19/19 18/18/18 28/28/28 
f 25/25/25 24/24/24 34/34/34 
f 28/28/28 25/25/25 35/35/35 
f 31/31/31 32/32/32 36/36/36 
f 37/37/37 38/38/38 39/39/39 
f 38/38/38 31/31/31 39/39/39 
f 38/38/38 33/33/33 31/31/31 
f 36/36/36 39/39/39 31/31/31 
f 40/40/40 39/39/39 36/36/36 
f 35/35/35 32/32/32 28/28/28 
f 36/36/36 32/32/32 41/41/41 
f 32/32/32 35/35/35 41/41/41 
f 36/36/36 41/41/41 40/40/40 
f 42/42/42 39/39/39 40/40/40 
f 42/42/42 40/40/40 43/43/43 
f 44/44/44 45/45/45 46/46/46 
f 7/7/7 6/6/6 46/46/46 
f 44/44/44 6/6/6 47/47/47 
f 47/47/47 6/6/6 48/48/48 
f 7/7/7 46/46/46 45/45/45 
f 44/44/44 46/46/46 6/6/6 
f 45/45/45 10/10/10 7/7/7 
f 21/21/21 10/10/10 45/45/45 
f 49/49/49 50/50/50 51/51/51 
f 21/21/21 45/45/45 50/52/50 
f 52/53/52 53/54/53 54/55/54 
f 44/44/44 52/53/52 54/55/54 
f 54/55/54 45/45/45 44/44/44 
f 54/55/54 50/52/50 45/45/45 
f 52/53/52 44/44/44 47/47/47 
f 53/54/53 52/53/52 55/56/55 
f 51/51/51 54/57/54 56/58/56 
f 51/51/51 50/50/50 54/57/54 
f 21/59/21 57/60/57 23/61/23 
f 22/22/22 21/21/21 23/23/23 
f 49/49/49 21/59/21 50/50/50 
f 57/60/57 21/59/21 49/49/49 
f 24/62/24 23/61/23 58/63/58 
f 24/62/24 58/63/58 59/64/59 
f 59/64/59 34/65/34 24/62/24 
f 60/66/60 34/65/34 59/64/59 
f 60/66/60 61/67/61 34/65/34 
f 61/68/61 25/25/25 34/34/34 
f 35/35/35 25/25/25 61/68/61 
f 60/66/60 62/69/62 61/67/61 
f 61/68/61 63/70/63 35/35/35 
f 64/71/64 61/67/61 62/69/62 
f 64/71/64 63/72/63 61/67/61 
f 65/73/65 35/35/35 63/70/63 
f 40/40/40 41/41/41 43/43/43 
f 43/43/43 41/41/41 65/73/65 
f 65/73/65 41/41/41 35/35/35 
f 66/74/66 43/43/43 65/73/65 
f 43/43/43 66/74/66 67/75/67 
f 68/76/68 66/74/66 65/73/65 
f 65/73/65 63/70/63 68/76/68 
f 66/74/66 68/76/68 69/77/69 
f 4/4/4 70/78/70 5/5/5 
f 71/79/71 72/80/72 70/78/70 
f 70/78/70 8/8/8 5/5/5 
f 73/81/73 70/78/70 1/1/1 
f 71/79/71 70/78/70 73/81/73 
f 74/82/74 71/79/71 73/81/73 
f 70/78/70 4/4/4 1/1/1 
f 75/83/75 76/84/76 77/85/77 
f 73/81/73 1/1/1 76/84/76 
f 76/84/76 3/3/3 14/14/14 
f 1/1/1 3/3/3 76/84/76 
f 77/85/77 76/84/76 14/14/14 
f 75/83/75 73/81/73 76/84/76 
f 14/14/14 16/16/16 77/85/77 
f 77/85/77 78/86/78 79/87/79 
f 77/85/77 16/16/16 78/86/78 
f 78/86/78 16/16/16 20/20/20 
f 77/85/77 79/87/79 75/83/75 
f 75/83/75 80/88/80 74/82/74 
f 75/83/75 74/82/74 73/81/73 
f 80/88/80 58/63/58 57/60/57 
f 79/87/79 80/88/80 75/83/75 
f 81/89/81 58/63/58 80/88/80 
f 79/87/79 81/89/81 80/88/80 
f 79/87/79 78/86/78 82/90/82 
f 83/91/83 82/90/82 84/92/84 
f 82/90/82 29/29/29 84/92/84 
f 20/20/20 29/29/29 78/86/78 
f 82/90/82 78/86/78 29/29/29 
f 82/90/82 83/91/83 79/87/79 
f 29/29/29 33/33/33 84/92/84 
f 85/93/85 33/33/33 38/38/38 
f 84/92/84 33/33/33 85/93/85 
f 33/33/33 29/29/29 26/26/26 
f 83/91/83 81/89/81 79/87/79 
f 58/63/58 81/89/81 59/64/59 
f 86/94/86 59/64/59 81/89/81 
f 87/95/87 83/91/83 84/92/84 
f 87/95/87 84/92/84 85/93/85 
f 86/94/86 81/89/81 83/91/83 
f 86/94/86 83/91/83 87/95/87 
f 37/37/37 85/93/85 38/38/38 
f 87/95/87 85/93/85 88/96/88 
f 37/37/37 39/39/39 42/42/42 
f 88/96/88 85/93/85 89/97/89 
f 89/97/89 37/37/37 42/42/42 
f 85/93/85 37/37/37 89/97/89 
f 89/97/89 42/42/42 67/75/67 
f 67/75/67 88/96/88 89/97/89 
f 55/56/55 52/53/52 90/98/90 
f 91/99/91 55/56/55 90/98/90 
f 52/53/52 47/47/47 48/48/48 
f 92/100/92 91/99/91 90/98/90 
f 90/98/90 48/48/48 92/100/92 
f 90/98/90 52/53/52 48/48/48 
f 92/100/92 48/48/48 93/101/93 
f 94/102/94 55/56/55 91/99/91 
f 72/80/72 93/101/93 8/8/8 
f 70/78/70 72/80/72 8/8/8 
f 92/100/92 93/101/93 72/80/72 
f 92/100/92 72/80/72 95/103/95 
f 93/101/93 6/6/6 8/8/8 
f 48/48/48 6/6/6 93/101/93 
f 96/104/96 97/105/97 49/49/49 
f 71/79/71 95/103/95 72/80/72 
f 96/104/96 49/49/49 51/51/51 
f 74/82/74 97/105/97 95/103/95 
f 74/82/74 95/103/95 71/79/71 
f 98/106/98 95/103/95 97/105/97 
f 74/82/74 80/88/80 97/105/97 
f 92/100/92 99/107/99 91/99/91 
f 92/100/92 98/106/98 99/107/99 
f 99/107/99 98/106/98 56/58/56 
f 96/104/96 56/58/56 98/106/98 
f 56/58/56 54/57/54 53/108/53 
f 95/103/95 98/106/98 92/100/92 
f 56/58/56 53/108/53 100/109/100 
f 97/105/97 96/104/96 98/106/98 
f 56/58/56 96/104/96 51/51/51 
f 97/105/97 80/88/80 57/60/57 
f 57/60/57 49/49/49 97/105/97 
f 58/63/58 23/61/23 57/60/57 
f 100/109/100 99/107/99 56/58/56 
f 91/99/91 100/109/100 94/110/94 
f 94/102/94 53/54/53 55/56/55 
f 99/107/99 100/109/100 91/99/91 
f 53/108/53 94/110/94 100/109/100 
f 62/69/62 60/66/60 86/94/86 
f 59/64/59 86/94/86 60/66/60 
f 101/111/101 64/71/64 62/69/62 
f 88/96/88 86/94/86 87/95/87 
f 101/111/101 62/69/62 86/94/86 
f 86/94/86 88/96/88 101/111/101 
f 88/96/88 102/112/102 101/111/101 
f 103/113/103 104/114/104 67/75/67 
f 67/75/67 42/42/42 43/43/43 
f 102/112/102 88/96/88 67/75/67 
f 102/112/102 67/75/67 104/114/104 
f 104/114/104 101/111/101 102/112/102 
f 67/75/67 66/74/66 103/113/103 
f 64/71/64 68/115/68 63/72/63 
f 64/71/64 105/116/105 68/115/68 
f 66/74/66 69/77/69 103/113/103 
f 101/111/101 104/114/104 64/71/64 
f 104/114/104 105/116/105 64/71/64 
f 104/114/104 106/117/106 107/118/107 
f 106/117/106 104/114/104 103/113/103 
f 68/76/68 108/119/108 69/77/69 
f 68/115/68 105/116/105 107/118/107 
f 107/118/107 108/120/108 68/115/68 
f 104/114/104 107/118/107 105/116/105 
f 107/118/107 109/121/109 108/120/108 
f 69/77/69 110/122/110 103/113/103 
f 110/122/110 106/117/106 103/113/103 
f 69/77/69 111/123/111 110/122/110 
f 69/77/69 108/119/108 112/124/112 
f 109/121/109 112/125/112 108/120/108 
f 112/124/112 111/123/111 69/77/69 
f 109/121/109 113/126/113 112/125/112 
f 113/127/113 110/122/110 111/123/111 
f 113/126/113 114/128/114 112/125/112 
f 107/118/107 113/127/113 109/121/109 
f 113/127/113 106/117/106 110/122/110 
f 114/129/114 113/127/113 111/123/111 
f 106/117/106 113/127/113 107/118/107 
f 112/125/112 114/128/114 111/130/111 
# 0 polygons - 224 triangles

