# 3ds Max Wavefront OBJ Exporter v0.97b - (c)2007 guruware
# File Created: 25.05.2016 23:48:38

mtllib Garlic_01.mtl

#
# object Garlic_01
#

v  -0.0229 -0.0203 0.0258
v  -0.0363 -0.0149 0.0142
v  -0.0276 -0.0241 0.0161
v  -0.0318 -0.0083 0.0226
v  -0.0377 -0.0044 0.0109
v  -0.0411 -0.0109 -0.0122
v  -0.0373 -0.0231 -0.0177
v  -0.0357 -0.0244 -0.0070
v  -0.0395 -0.0175 -0.0193
v  -0.0358 -0.0181 -0.0266
v  -0.0396 -0.0076 -0.0039
v  -0.0368 0.0005 -0.0146
v  -0.0393 -0.0098 -0.0214
v  -0.0345 -0.0026 -0.0253
v  -0.0314 -0.0221 0.0018
v  -0.0297 -0.0237 0.0089
v  -0.0376 -0.0146 0.0042
v  -0.0151 -0.0292 0.0008
v  -0.0124 -0.0293 0.0056
v  -0.0192 -0.0290 -0.0044
v  -0.0246 -0.0308 -0.0180
v  -0.0149 -0.0307 -0.0102
v  -0.0098 -0.0336 -0.0006
v  -0.0055 -0.0332 0.0059
v  -0.0163 -0.0220 0.0342
v  -0.0163 -0.0080 0.0350
v  -0.0156 -0.0009 0.0308
v  -0.0084 -0.0142 0.0398
v  -0.0070 -0.0283 0.0332
v  0.0027 -0.0233 0.0371
v  0.0013 -0.0102 0.0399
v  -0.0130 -0.0277 0.0133
v  -0.0127 -0.0289 0.0239
v  -0.0064 -0.0307 0.0148
v  0.0069 -0.0314 0.0192
v  -0.0018 -0.0332 0.0023
v  0.0022 -0.0326 0.0064
v  -0.0009 -0.0322 0.0110
v  0.0075 -0.0315 0.0078
v  0.0126 -0.0311 0.0166
v  0.0096 -0.0263 0.0298
v  0.0217 -0.0280 0.0258
v  0.0273 -0.0279 0.0127
v  0.0087 -0.0166 0.0377
v  0.0171 -0.0179 0.0354
v  0.0128 -0.0061 0.0358
v  0.0271 -0.0193 0.0295
v  0.0235 -0.0118 0.0333
v  0.0332 -0.0175 0.0225
v  0.0301 -0.0088 0.0271
v  -0.0295 -0.0257 -0.0275
v  -0.0238 -0.0228 -0.0335
v  -0.0174 -0.0277 -0.0290
v  -0.0303 -0.0169 -0.0340
v  -0.0338 -0.0118 -0.0306
v  -0.0214 -0.0156 -0.0374
v  -0.0119 -0.0160 -0.0365
v  -0.0097 -0.0224 -0.0325
v  -0.0236 -0.0081 -0.0367
v  -0.0257 -0.0024 -0.0337
v  -0.0146 -0.0093 -0.0385
v  -0.0148 0.0022 -0.0335
v  -0.0074 -0.0291 -0.0150
v  -0.0063 -0.0321 -0.0101
v  -0.0010 -0.0272 -0.0164
v  -0.0033 -0.0191 -0.0328
v  0.0057 -0.0198 -0.0330
v  0.0040 -0.0284 -0.0129
v  0.0120 -0.0225 -0.0295
v  -0.0066 -0.0096 -0.0377
v  0.0044 -0.0111 -0.0398
v  -0.0067 -0.0031 -0.0388
v  0.0146 -0.0275 -0.0232
v  0.0214 -0.0228 -0.0313
v  0.0162 -0.0155 -0.0355
v  0.0234 -0.0115 -0.0349
v  0.0071 -0.0040 -0.0399
v  0.0053 -0.0321 0.0012
v  0.0103 -0.0317 -0.0027
v  0.0080 -0.0316 -0.0087
v  0.0165 -0.0300 0.0080
v  0.0144 -0.0289 -0.0029
v  0.0135 -0.0295 -0.0117
v  0.0300 -0.0271 0.0004
v  0.0290 -0.0260 -0.0219
v  0.0362 -0.0195 -0.0140
v  0.0352 -0.0186 0.0130
v  0.0358 -0.0212 0.0072
v  0.0359 -0.0102 0.0144
v  0.0405 -0.0184 -0.0021
v  0.0400 -0.0133 0.0071
v  0.0343 -0.0152 -0.0266
v  0.0386 -0.0078 -0.0137
v  -0.0284 0.0022 0.0198
v  -0.0308 0.0060 0.0092
v  -0.0312 0.0048 -0.0043
v  -0.0246 0.0071 -0.0204
v  -0.0122 0.0126 0.0189
v  -0.0157 0.0149 -0.0061
v  -0.0067 0.0191 0.0072
v  -0.0091 0.0130 -0.0210
v  -0.0080 0.0176 -0.0036
v  -0.0061 0.0234 -0.0036
v  0.0020 0.0292 -0.0035
v  -0.0013 0.0306 0.0005
v  -0.0014 0.0310 0.0062
v  0.0004 -0.0007 0.0351
v  0.0023 0.0119 0.0216
v  0.0006 0.0174 0.0135
v  0.0165 0.0037 0.0290
v  0.0049 0.0245 0.0103
v  0.0120 0.0137 0.0108
v  0.0210 0.0079 0.0188
v  0.0249 -0.0009 0.0286
v  0.0334 -0.0039 0.0186
v  0.0071 0.0276 0.0090
v  0.0069 0.0323 0.0060
v  0.0105 0.0281 0.0038
v  0.0023 0.0061 -0.0359
v  0.0045 0.0157 -0.0156
v  0.0062 0.0249 -0.0054
v  0.0104 0.0177 -0.0094
v  0.0179 0.0076 -0.0247
v  0.0208 0.0099 -0.0113
v  0.0181 0.0005 -0.0325
v  0.0057 0.0336 0.0031
v  0.0124 0.0185 0.0056
v  0.0227 0.0113 0.0013
v  0.0305 0.0047 0.0100
v  0.0340 0.0018 -0.0127
v  0.0351 0.0052 0.0001
v  0.0394 -0.0050 0.0074
v  0.0411 -0.0044 -0.0008
v  0.0318 -0.0014 -0.0244
v  0.0089 0.0324 0.0010
# 135 vertices

vn -0.6375 -0.6305 0.4428
vn -0.8743 -0.3433 0.3431
vn -0.4834 -0.8117 0.3279
vn -0.7495 0.0710 0.6582
vn -0.9263 0.2838 0.2477
vn -0.9993 0.0084 0.0372
vn -0.7807 -0.6118 -0.1270
vn -0.6968 -0.6628 0.2742
vn -0.9428 -0.2618 -0.2064
vn -0.8062 -0.3091 -0.5044
vn -0.9823 0.1351 0.1299
vn -0.7741 0.6246 -0.1032
vn -0.9242 0.1542 -0.3495
vn -0.6982 0.5266 -0.4850
vn -0.6399 -0.7500 0.1675
vn -0.5679 -0.8218 0.0469
vn -0.9088 -0.4169 -0.0148
vn -0.4426 -0.8593 0.2563
vn -0.4120 -0.8888 0.2008
vn -0.3453 -0.9141 0.2125
vn -0.2210 -0.9714 -0.0869
vn -0.1220 -0.9881 -0.0937
vn -0.2580 -0.9627 0.0810
vn -0.1743 -0.9695 0.1721
vn -0.5444 -0.4779 0.6894
vn -0.4687 0.2739 0.8398
vn -0.3526 0.5798 0.7345
vn -0.2317 -0.0152 0.9727
vn -0.1409 -0.8125 0.5657
vn 0.1914 -0.5629 0.8041
vn 0.0669 0.1709 0.9830
vn -0.3713 -0.9211 0.1176
vn -0.4250 -0.8976 0.1172
vn -0.2395 -0.9609 0.1386
vn 0.0471 -0.9768 0.2091
vn 0.0826 -0.9965 -0.0115
vn 0.1238 -0.9910 0.0515
vn -0.0376 -0.9840 0.1743
vn 0.1930 -0.9810 -0.0216
vn 0.1509 -0.9866 0.0625
vn 0.1336 -0.8009 0.5837
vn 0.3624 -0.8127 0.4562
vn 0.4879 -0.8622 0.1359
vn 0.2656 -0.2335 0.9354
vn 0.2790 -0.3184 0.9060
vn 0.2614 0.3116 0.9136
vn 0.6252 -0.3739 0.6851
vn 0.4891 0.0693 0.8695
vn 0.8606 -0.3006 0.4110
vn 0.7733 0.1661 0.6119
vn -0.4768 -0.7409 -0.4729
vn -0.1821 -0.5992 -0.7796
vn 0.0735 -0.8587 -0.5072
vn -0.5595 -0.2182 -0.7996
vn -0.7330 0.1142 -0.6705
vn -0.1367 -0.2490 -0.9588
vn 0.1276 -0.3944 -0.9100
vn 0.2490 -0.6782 -0.6914
vn -0.3390 0.2134 -0.9163
vn -0.4275 0.5209 -0.7389
vn -0.0691 0.0395 -0.9968
vn -0.2723 0.6352 -0.7228
vn 0.1077 -0.9267 -0.3601
vn -0.0040 -0.9349 -0.3548
vn 0.1442 -0.8899 -0.4329
vn 0.0917 -0.6993 -0.7089
vn -0.0266 -0.7644 -0.6442
vn 0.0069 -0.8668 -0.4986
vn -0.1288 -0.7859 -0.6049
vn -0.0235 -0.2885 -0.9572
vn 0.0132 -0.3109 -0.9503
vn -0.1640 0.2152 -0.9627
vn -0.1061 -0.9182 -0.3816
vn 0.2019 -0.6529 -0.7300
vn 0.1355 -0.4157 -0.8994
vn 0.4530 -0.0050 -0.8915
vn 0.1874 0.1998 -0.9618
vn 0.2311 -0.9693 0.0839
vn 0.3863 -0.8981 0.2100
vn 0.1130 -0.9403 -0.3209
vn 0.1751 -0.9821 -0.0700
vn 0.3007 -0.9537 -0.0078
vn 0.1537 -0.9779 -0.1414
vn 0.4408 -0.8974 -0.0219
vn 0.4853 -0.8137 -0.3200
vn 0.8496 -0.4836 -0.2105
vn 0.8442 -0.4280 0.3226
vn 0.7513 -0.6180 0.2314
vn 0.9041 -0.0040 0.4274
vn 0.8972 -0.4397 -0.0409
vn 0.9331 -0.1624 0.3210
vn 0.7962 -0.1780 -0.5782
vn 0.9453 0.1442 -0.2927
vn -0.5968 0.5792 0.5553
vn -0.6564 0.7379 0.1573
vn -0.6612 0.7502 -0.0083
vn -0.4497 0.8258 -0.3403
vn -0.2874 0.7999 0.5269
vn -0.4258 0.8999 -0.0943
vn -0.6075 0.7201 0.3352
vn -0.2054 0.8946 -0.3969
vn -0.5583 0.7813 -0.2791
vn -0.7587 0.4892 -0.4302
vn -0.1371 0.6233 -0.7698
vn -0.5439 0.7862 -0.2934
vn -0.5275 0.7144 0.4598
vn -0.0414 0.5887 0.8073
vn 0.0769 0.8061 0.5868
vn 0.0028 0.6919 0.7220
vn 0.2672 0.6888 0.6739
vn 0.0867 0.3625 0.9280
vn 0.4737 0.7189 0.5087
vn 0.4261 0.8257 0.3696
vn 0.5432 0.5212 0.6583
vn 0.8227 0.3771 0.4254
vn 0.3429 0.4416 0.8291
vn 0.3530 0.7202 0.5972
vn 0.9285 0.3122 0.2010
vn 0.0517 0.6833 -0.7283
vn 0.1121 0.8611 -0.4959
vn 0.1213 0.6000 -0.7907
vn 0.5667 0.6708 -0.4785
vn 0.3979 0.8094 -0.4319
vn 0.4753 0.8430 -0.2517
vn 0.4297 0.5304 -0.7308
vn 0.0183 0.9994 -0.0285
vn 0.8339 0.4889 0.2560
vn 0.4987 0.8652 0.0526
vn 0.6111 0.7256 0.3164
vn 0.6983 0.6594 -0.2787
vn 0.6754 0.7366 0.0353
vn 0.8928 0.2952 0.3402
vn 0.9608 0.2763 -0.0214
vn 0.6859 0.5095 -0.5196
vn 0.6034 0.7450 -0.2845
# 135 vertex normals

vt 0.8162 0.3384 0.0000
vt 0.9149 0.3028 0.0000
vt 0.8714 0.3669 0.0000
vt 0.8689 0.2662 0.0000
vt 0.9152 0.2314 0.0000
vt 0.4743 0.8973 0.0000
vt 0.5282 0.8275 0.0000
vt 0.5697 0.8784 0.0000
vt 0.4957 0.8409 0.0000
vt 0.4782 0.7965 0.0000
vt 0.4712 0.9524 0.0000
vt 0.3973 0.9051 0.0000
vt 0.4499 0.8507 0.0000
vt 0.3972 0.8387 0.0000
vt 0.9530 0.3998 0.0000
vt 0.9100 0.3822 0.0000
vt 0.9616 0.3046 0.0000
vt 0.8638 0.4901 0.0000
vt 0.8372 0.4833 0.0000
vt 0.8880 0.5141 0.0000
vt 0.9931 0.4883 0.0000
vt 0.5821 0.7497 0.0000
vt 0.9285 0.6045 0.0000
vt 0.8604 0.5717 0.0000
vt 0.8196 0.5342 0.0000
vt 0.7919 0.5161 0.0000
vt 0.5871 0.9426 0.0000
vt 0.9925 0.2222 0.0000
vt 0.7687 0.3415 0.0000
vt 0.7659 0.2669 0.0000
vt 0.7489 0.2436 0.0000
vt 0.7398 0.2886 0.0000
vt 0.7425 0.3732 0.0000
vt 0.7067 0.3555 0.0000
vt 0.6940 0.2844 0.0000
vt 0.8220 0.4473 0.0000
vt 0.7837 0.4086 0.0000
vt 0.7845 0.4698 0.0000
vt 0.7059 0.4701 0.0000
vt 0.7603 0.5329 0.0000
vt 0.7423 0.5269 0.0000
vt 0.7586 0.4996 0.0000
vt 0.7085 0.5285 0.0000
vt 0.6837 0.4793 0.0000
vt 0.6930 0.4056 0.0000
vt 0.6344 0.4311 0.0000
vt 0.5947 0.4856 0.0000
vt 0.6759 0.3335 0.0000
vt 0.6471 0.3556 0.0000
vt 0.6327 0.2924 0.0000
vt 0.6010 0.3941 0.0000
vt 0.6057 0.3504 0.0000
vt 0.5604 0.4044 0.0000
vt 0.5570 0.3523 0.0000
vt 0.5101 0.7473 0.0000
vt 0.4679 0.7068 0.0000
vt 0.5086 0.6674 0.0000
vt 0.4491 0.7529 0.0000
vt 0.4357 0.7887 0.0000
vt 0.4144 0.7083 0.0000
vt 0.3866 0.6552 0.0000
vt 0.4305 0.6200 0.0000
vt 0.3842 0.7451 0.0000
vt 0.3625 0.7780 0.0000
vt 0.3581 0.6972 0.0000
vt 0.3017 0.7565 0.0000
vt 0.8086 0.6247 0.0000
vt 0.8829 0.7009 0.0000
vt 0.8010 0.5952 0.0000
vt 0.7597 0.6479 0.0000
vt 0.8249 0.7473 0.0000
vt 0.7728 0.7636 0.0000
vt 0.7047 0.7652 0.0000
vt 0.7192 0.6321 0.0000
vt 0.6465 0.7350 0.0000
vt 0.3301 0.6564 0.0000
vt 0.3664 0.5911 0.0000
vt 0.2780 0.6075 0.0000
vt 0.2990 0.6894 0.0000
vt 0.6243 0.6833 0.0000
vt 0.5713 0.7334 0.0000
vt 0.3061 0.5439 0.0000
vt 0.2263 0.5397 0.0000
vt 0.2734 0.4970 0.0000
vt 0.2096 0.4779 0.0000
vt 0.1704 0.5424 0.0000
vt 0.2366 0.6336 0.0000
vt 0.7210 0.5602 0.0000
vt 0.6902 0.5823 0.0000
vt 0.6994 0.6085 0.0000
vt 0.6537 0.5204 0.0000
vt 0.6503 0.5811 0.0000
vt 0.6484 0.6231 0.0000
vt 0.5581 0.5324 0.0000
vt 0.5096 0.6526 0.0000
vt 0.4560 0.5602 0.0000
vt 0.5373 0.4402 0.0000
vt 0.5304 0.4720 0.0000
vt 0.5083 0.3936 0.0000
vt 0.4806 0.4930 0.0000
vt 0.4905 0.4368 0.0000
vt 0.1075 0.4812 0.0000
vt 0.1583 0.4163 0.0000
vt 0.3795 0.5918 0.0000
vt 0.3915 0.4859 0.0000
vt 0.8275 0.2090 0.0000
vt 0.8521 0.1649 0.0000
vt 0.3535 0.9689 0.0000
vt 0.3122 0.8635 0.0000
vt 0.8916 0.1027 0.0000
vt 0.7071 0.1561 0.0000
vt 0.2192 0.9332 0.0000
vt 0.6750 0.0818 0.0000
vt 0.2158 0.8251 0.0000
vt 0.7691 0.0309 0.0000
vt 0.7053 0.0202 0.0000
vt 0.6563 0.0050 0.0000
vt 0.0554 0.9097 0.0000
vt 0.1161 0.9206 0.0000
vt 0.0581 0.9427 0.0000
vt 0.5771 0.0451 0.0000
vt 0.6626 0.2416 0.0000
vt 0.6129 0.1697 0.0000
vt 0.6062 0.1280 0.0000
vt 0.5734 0.2662 0.0000
vt 0.5505 0.1015 0.0000
vt 0.5156 0.1786 0.0000
vt 0.5180 0.2541 0.0000
vt 0.5624 0.3081 0.0000
vt 0.5054 0.3480 0.0000
vt 0.5220 0.0913 0.0000
vt 0.5157 0.0595 0.0000
vt 0.4796 0.0901 0.0000
vt 0.2160 0.7012 0.0000
vt 0.1540 0.9174 0.0000
vt 0.1189 0.8052 0.0000
vt 0.0547 0.8692 0.0000
vt 0.0622 0.8112 0.0000
vt 0.0999 0.6803 0.0000
vt 0.0282 0.7351 0.0000
vt 0.1483 0.6244 0.0000
vt 0.5164 0.0390 0.0000
vt 0.5801 0.0125 0.0000
vt 0.4736 0.1572 0.0000
vt 0.3706 0.1482 0.0000
vt 0.4176 0.2416 0.0000
vt 0.4537 0.3079 0.0000
vt 0.3237 0.2780 0.0000
vt 0.3522 0.4033 0.0000
vt 0.2338 0.3591 0.0000
vt 0.4093 0.3438 0.0000
vt 0.4613 0.3955 0.0000
vt 0.4312 0.4179 0.0000
vt 0.0651 0.5686 0.0000
vt 0.3033 0.4757 0.0000
vt 0.4728 0.0575 0.0000
vt 0.0014 0.9086 0.0000
vt 0.0071 0.9336 0.0000
# 158 texture coords

g Garlic_01
usemtl _Garlic_01default
s 1
f 1/1/1 2/2/2 3/3/3 
f 2/2/2 1/1/1 4/4/4 
f 5/5/5 2/2/2 4/4/4 
f 6/6/6 7/7/7 8/8/8 
f 7/7/7 6/6/6 9/9/9 
f 7/7/7 9/9/9 10/10/10 
f 6/6/6 8/8/8 11/11/11 
f 12/12/12 6/6/6 11/11/11 
f 6/6/6 13/13/13 9/9/9 
f 10/10/10 9/9/9 13/13/13 
f 14/14/14 13/13/13 12/12/12 
f 12/12/12 13/13/13 6/6/6 
f 15/15/15 16/16/16 17/17/17 
f 2/2/2 16/16/16 3/3/3 
f 16/16/16 15/15/15 18/18/18 
f 19/19/19 3/3/3 16/16/16 
f 20/20/20 15/15/15 8/21/8 
f 8/8/8 7/7/7 21/22/21 
f 20/20/20 8/21/8 21/23/21 
f 21/23/21 22/24/22 20/20/20 
f 20/20/20 18/18/18 15/15/15 
f 23/25/23 24/26/24 19/19/19 
f 16/16/16 18/18/18 19/19/19 
f 17/17/17 2/2/2 5/5/5 
f 16/16/16 2/2/2 17/17/17 
f 11/11/11 8/8/8 15/27/15 
f 11/28/11 15/15/15 17/17/17 
f 5/5/5 11/28/11 17/17/17 
f 25/29/25 4/4/4 1/1/1 
f 4/4/4 25/29/25 26/30/26 
f 26/30/26 27/31/27 4/4/4 
f 28/32/28 25/29/25 29/33/29 
f 29/33/29 30/34/30 28/32/28 
f 26/30/26 25/29/25 28/32/28 
f 31/35/31 28/32/28 30/34/30 
f 32/36/32 1/1/1 3/3/3 
f 32/36/32 33/37/33 1/1/1 
f 33/37/33 25/29/25 1/1/1 
f 3/3/3 19/19/19 32/36/32 
f 33/37/33 32/36/32 34/38/34 
f 34/38/34 29/33/29 33/37/33 
f 25/29/25 33/37/33 29/33/29 
f 35/39/35 30/34/30 29/33/29 
f 34/38/34 35/39/35 29/33/29 
f 32/36/32 24/26/24 34/38/34 
f 24/26/24 32/36/32 19/19/19 
f 24/26/24 36/40/36 37/41/37 
f 37/41/37 38/42/38 24/26/24 
f 24/26/24 38/42/38 34/38/34 
f 34/38/34 38/42/38 35/39/35 
f 39/43/39 35/39/35 37/41/37 
f 38/42/38 37/41/37 35/39/35 
f 35/39/35 39/43/39 40/44/40 
f 41/45/41 30/34/30 35/39/35 
f 42/46/42 41/45/41 35/39/35 
f 40/44/40 43/47/43 42/46/42 
f 42/46/42 35/39/35 40/44/40 
f 31/35/31 30/34/30 44/48/44 
f 44/48/44 30/34/30 41/45/41 
f 44/48/44 41/45/41 45/49/45 
f 46/50/46 44/48/44 45/49/45 
f 45/49/45 41/45/41 42/46/42 
f 47/51/47 45/49/45 42/46/42 
f 48/52/48 45/49/45 47/51/47 
f 49/53/49 50/54/50 47/51/47 
f 51/55/51 21/22/21 7/7/7 
f 51/55/51 52/56/52 53/57/53 
f 10/10/10 54/58/54 51/55/51 
f 55/59/55 54/58/54 10/10/10 
f 51/55/51 7/7/7 10/10/10 
f 52/56/52 54/58/54 56/60/56 
f 52/56/52 51/55/51 54/58/54 
f 57/61/57 58/62/58 56/60/56 
f 56/60/56 58/62/58 52/56/52 
f 53/57/53 52/56/52 58/62/58 
f 55/59/55 10/10/10 13/13/13 
f 59/63/59 54/58/54 60/64/60 
f 55/59/55 13/13/13 14/14/14 
f 55/59/55 14/14/14 60/64/60 
f 60/64/60 54/58/54 55/59/55 
f 54/58/54 59/63/59 56/60/56 
f 61/65/61 57/61/57 56/60/56 
f 61/65/61 59/63/59 62/66/62 
f 59/63/59 61/65/61 56/60/56 
f 53/57/53 21/22/21 51/55/51 
f 63/67/63 21/23/21 53/68/53 
f 23/25/23 64/69/64 36/40/36 
f 65/70/65 63/67/63 53/68/53 
f 58/71/58 66/72/66 65/70/65 
f 65/70/65 53/68/53 58/71/58 
f 65/70/65 66/72/66 67/73/67 
f 68/74/68 67/73/67 69/75/69 
f 65/70/65 67/73/67 68/74/68 
f 61/65/61 70/76/70 57/61/57 
f 70/76/70 66/77/66 57/61/57 
f 71/78/71 66/77/66 70/76/70 
f 66/77/66 58/62/58 57/61/57 
f 72/79/72 70/76/70 61/65/61 
f 73/80/73 69/75/69 74/81/74 
f 71/78/71 67/82/67 66/77/66 
f 70/76/70 72/79/72 71/78/71 
f 71/78/71 75/83/75 67/82/67 
f 75/83/75 69/84/69 67/82/67 
f 69/84/69 75/83/75 74/85/74 
f 76/86/76 75/83/75 77/87/77 
f 77/87/77 75/83/75 71/78/71 
f 78/88/78 37/41/37 36/40/36 
f 78/88/78 36/40/36 79/89/79 
f 79/89/79 36/40/36 80/90/80 
f 39/43/39 37/41/37 78/88/78 
f 40/44/40 39/43/39 81/91/81 
f 81/91/81 43/47/43 40/44/40 
f 82/92/82 81/91/81 39/43/39 
f 83/93/83 80/90/80 68/74/68 
f 68/74/68 73/80/73 83/93/83 
f 82/92/82 79/89/79 83/93/83 
f 83/93/83 79/89/79 80/90/80 
f 69/75/69 73/80/73 68/74/68 
f 84/94/84 82/92/82 85/95/85 
f 85/95/85 82/92/82 83/93/83 
f 85/95/85 86/96/86 84/94/84 
f 82/92/82 84/94/84 81/91/81 
f 43/47/43 81/91/81 84/94/84 
f 49/53/49 47/51/47 42/46/42 
f 43/47/43 49/53/49 42/46/42 
f 49/53/49 43/47/43 87/97/87 
f 87/97/87 43/47/43 88/98/88 
f 87/97/87 89/99/89 49/53/49 
f 88/98/88 43/47/43 84/94/84 
f 88/98/88 84/94/84 90/100/90 
f 91/101/91 87/97/87 88/98/88 
f 90/100/90 91/101/91 88/98/88 
f 85/95/85 83/93/83 73/80/73 
f 73/80/73 74/81/74 85/95/85 
f 92/102/92 74/85/74 76/86/76 
f 92/102/92 85/103/85 74/85/74 
f 76/86/76 74/85/74 75/83/75 
f 92/104/92 86/96/86 85/95/85 
f 93/105/93 86/96/86 92/104/92 
f 90/100/90 84/94/84 86/96/86 
f 90/100/90 86/96/86 93/105/93 
f 94/106/94 95/107/95 5/5/5 
f 5/5/5 4/4/4 94/106/94 
f 96/108/96 12/12/12 11/11/11 
f 97/109/97 14/14/14 12/12/12 
f 95/107/95 11/28/11 5/5/5 
f 96/110/96 11/28/11 95/107/95 
f 95/107/95 94/106/94 98/111/98 
f 97/109/97 12/12/12 96/108/96 
f 99/112/99 97/109/97 96/108/96 
f 100/113/100 96/110/96 95/107/95 
f 98/111/98 100/113/100 95/107/95 
f 97/109/97 99/112/99 101/114/101 
f 100/113/100 99/115/99 96/110/96 
f 100/113/100 102/116/102 99/115/99 
f 103/117/103 102/116/102 100/113/100 
f 104/118/104 103/119/103 105/120/105 
f 106/121/106 103/117/103 100/113/100 
f 27/31/27 94/106/94 4/4/4 
f 98/111/98 94/106/94 27/31/27 
f 27/31/27 26/30/26 107/122/107 
f 26/30/26 28/32/28 107/122/107 
f 107/122/107 28/32/28 31/35/31 
f 27/31/27 108/123/108 98/111/98 
f 108/123/108 27/31/27 107/122/107 
f 108/123/108 109/124/109 98/111/98 
f 107/122/107 110/125/110 108/123/108 
f 100/113/100 98/111/98 109/124/109 
f 111/126/111 109/124/109 112/127/112 
f 112/127/112 109/124/109 108/123/108 
f 113/128/113 108/123/108 110/125/110 
f 108/123/108 113/128/113 112/127/112 
f 31/35/31 46/50/46 107/122/107 
f 31/35/31 44/48/44 46/50/46 
f 110/125/110 107/122/107 46/50/46 
f 114/129/114 46/50/46 48/52/48 
f 45/49/45 48/52/48 46/50/46 
f 114/129/114 48/52/48 50/54/50 
f 110/125/110 46/50/46 114/129/114 
f 114/129/114 50/54/50 115/130/115 
f 48/52/48 47/51/47 50/54/50 
f 113/128/113 110/125/110 114/129/114 
f 106/121/106 100/113/100 109/124/109 
f 106/121/106 109/124/109 111/126/111 
f 111/126/111 112/127/112 116/131/116 
f 117/132/117 116/131/116 118/133/118 
f 97/109/97 60/64/60 14/14/14 
f 60/64/60 97/109/97 62/66/62 
f 72/79/72 61/65/61 62/66/62 
f 60/64/60 62/66/62 59/63/59 
f 62/66/62 97/109/97 101/114/101 
f 62/66/62 119/134/119 72/79/72 
f 62/66/62 101/114/101 119/134/119 
f 101/114/101 99/112/99 102/135/102 
f 120/136/120 102/135/102 103/119/103 
f 102/135/102 120/136/120 101/114/101 
f 103/119/103 121/137/121 120/136/120 
f 121/137/121 122/138/122 120/136/120 
f 120/136/120 119/134/119 101/114/101 
f 123/139/123 119/134/119 120/136/120 
f 120/136/120 124/140/124 123/139/123 
f 124/140/124 120/136/120 122/138/122 
f 77/87/77 72/79/72 119/134/119 
f 71/78/71 72/79/72 77/87/77 
f 125/141/125 76/86/76 77/87/77 
f 125/141/125 77/87/77 119/134/119 
f 125/141/125 119/134/119 123/139/123 
f 103/119/103 104/118/104 121/137/121 
f 126/142/126 105/143/105 106/121/106 
f 118/133/118 127/144/127 122/145/122 
f 127/144/127 128/146/128 122/145/122 
f 112/127/112 113/128/113 128/146/128 
f 113/128/113 129/147/129 128/146/128 
f 128/146/128 127/144/127 112/127/112 
f 124/148/124 130/149/130 123/150/123 
f 124/148/124 122/145/122 128/146/128 
f 129/147/129 131/151/131 128/146/128 
f 131/151/131 124/148/124 128/146/128 
f 124/148/124 131/151/131 130/149/130 
f 115/130/115 50/54/50 49/53/49 
f 129/147/129 115/130/115 132/152/132 
f 115/130/115 49/53/49 89/99/89 
f 89/99/89 91/101/91 132/152/132 
f 87/97/87 91/101/91 89/99/89 
f 133/153/133 132/152/132 91/101/91 
f 91/101/91 90/100/90 133/153/133 
f 115/130/115 89/99/89 132/152/132 
f 131/151/131 133/153/133 130/149/130 
f 131/151/131 132/152/132 133/153/133 
f 114/129/114 129/147/129 113/128/113 
f 115/130/115 129/147/129 114/129/114 
f 132/152/132 131/151/131 129/147/129 
f 125/141/125 134/154/134 76/86/76 
f 134/154/134 92/102/92 76/86/76 
f 125/141/125 123/139/123 134/154/134 
f 134/155/134 93/105/93 92/104/92 
f 93/105/93 130/149/130 133/153/133 
f 130/149/130 93/105/93 134/155/134 
f 130/149/130 134/155/134 123/150/123 
f 133/153/133 90/100/90 93/105/93 
f 118/133/118 116/131/116 127/144/127 
f 112/127/112 127/144/127 116/131/116 
f 135/156/135 118/133/118 122/145/122 
f 135/157/135 122/138/122 121/137/121 
f 135/157/135 121/137/121 104/118/104 
f 80/90/80 36/40/36 64/69/64 68/74/68 
f 64/69/64 63/67/63 65/70/65 68/74/68 
f 24/26/24 23/25/23 36/40/36 
f 82/92/82 39/43/39 78/88/78 79/89/79 
f 63/67/63 64/69/64 22/24/22 21/23/21 
f 23/25/23 20/20/20 22/24/22 64/69/64 
f 18/18/18 20/20/20 23/25/23 19/19/19 
f 104/118/104 105/120/105 126/158/126 135/157/135 
f 135/156/135 126/142/126 117/132/117 118/133/118 
f 126/142/126 106/121/106 117/132/117 
f 106/121/106 105/143/105 103/117/103 
f 111/126/111 116/131/116 117/132/117 106/121/106 
# 9 polygons - 248 triangles

