# 3ds Max Wavefront OBJ Exporter v0.97b - (c)2007 guruware
# File Created: 26.05.2016 01:35:54

mtllib Orange_03.mtl

#
# object Orange_03
#

v  -0.0316 0.0341 -0.0034
v  -0.0160 0.0443 0.0092
v  -0.0116 0.0458 -0.0094
v  -0.0310 0.0330 0.0154
v  0.0011 0.0456 -0.0011
v  -0.0149 0.0389 -0.0223
v  -0.0256 0.0355 -0.0172
v  -0.0129 0.0413 0.0211
v  -0.0185 0.0282 0.0343
v  -0.0015 0.0356 0.0318
v  -0.0430 0.0170 0.0084
v  -0.0364 0.0197 0.0237
v  -0.0263 0.0122 0.0382
v  -0.0393 0.0078 0.0265
v  -0.0053 0.0207 0.0420
v  -0.0132 0.0055 0.0456
v  0.0146 0.0323 0.0318
v  0.0038 0.0452 0.0058
v  0.0012 0.0443 0.0178
v  0.0119 0.0423 0.0198
v  0.0132 0.0460 -0.0012
v  0.0214 0.0413 0.0142
v  0.0272 0.0402 0.0028
v  0.0382 0.0265 0.0085
v  0.0050 0.0457 -0.0129
v  -0.0424 0.0151 -0.0124
v  -0.0347 0.0256 -0.0178
v  -0.0291 0.0236 -0.0285
v  -0.0390 -0.0004 -0.0269
v  -0.0300 0.0052 -0.0350
v  -0.0426 -0.0116 0.0169
v  -0.0460 -0.0021 0.0062
v  -0.0379 -0.0082 0.0288
v  -0.0467 -0.0003 -0.0085
v  -0.0305 -0.0086 0.0367
v  -0.0365 -0.0240 0.0187
v  -0.0440 -0.0176 -0.0033
v  -0.0381 -0.0279 -0.0008
v  -0.0366 -0.0184 -0.0227
v  -0.0285 -0.0139 -0.0344
v  -0.0329 -0.0294 -0.0153
v  -0.0205 -0.0250 -0.0341
v  -0.0232 -0.0334 -0.0236
v  -0.0018 0.0408 -0.0241
v  -0.0048 0.0305 -0.0348
v  -0.0147 0.0269 -0.0352
v  0.0161 0.0439 -0.0118
v  0.0257 0.0410 -0.0068
v  0.0266 0.0339 -0.0195
v  0.0371 0.0288 -0.0090
v  0.0170 0.0355 -0.0262
v  0.0089 0.0409 -0.0235
v  0.0110 0.0276 -0.0363
v  -0.0035 0.0199 -0.0410
v  0.0127 0.0125 -0.0429
v  0.0340 0.0214 -0.0229
v  0.0280 0.0213 -0.0308
v  0.0346 0.0074 -0.0296
v  0.0294 0.0095 -0.0340
v  0.0223 0.0076 -0.0395
v  -0.0197 0.0148 -0.0386
v  -0.0230 -0.0034 -0.0400
v  -0.0109 -0.0003 -0.0451
v  0.0036 0.0043 -0.0459
v  -0.0105 -0.0172 -0.0426
v  0.0168 -0.0051 -0.0434
v  0.0022 -0.0090 -0.0454
v  0.0064 -0.0205 -0.0426
v  0.0012 -0.0310 -0.0353
v  0.0315 0.0002 -0.0345
v  0.0209 0.0237 0.0348
v  0.0019 0.0119 0.0454
v  -0.0141 -0.0072 0.0444
v  0.0045 -0.0071 0.0459
v  0.0156 -0.0016 0.0437
v  0.0007 -0.0233 0.0409
v  -0.0136 -0.0222 0.0396
v  0.0163 -0.0185 0.0409
v  0.0358 0.0220 0.0213
v  0.0282 0.0072 0.0366
v  0.0365 0.0094 0.0286
v  0.0440 0.0011 0.0175
v  0.0288 -0.0120 0.0359
v  0.0374 -0.0085 0.0281
v  0.0303 -0.0258 0.0259
v  0.0164 -0.0330 0.0302
v  0.0444 -0.0157 0.0092
v  0.0363 -0.0285 0.0130
v  0.0223 -0.0379 0.0177
v  -0.0244 -0.0222 0.0337
v  -0.0285 -0.0363 0.0122
v  -0.0254 -0.0326 0.0232
v  -0.0101 -0.0349 0.0293
v  0.0032 -0.0421 0.0209
v  -0.0128 -0.0426 0.0138
v  -0.0176 -0.0426 0.0017
v  -0.0273 -0.0376 -0.0006
v  -0.0169 -0.0401 -0.0156
v  0.0038 -0.0460 -0.0051
v  0.0183 -0.0429 0.0077
v  0.0314 -0.0360 0.0011
v  0.0435 0.0158 -0.0114
v  0.0458 0.0082 -0.0059
v  0.0467 0.0044 0.0047
v  0.0454 -0.0061 -0.0124
v  0.0380 -0.0024 -0.0265
v  0.0388 -0.0199 -0.0192
v  0.0300 -0.0157 -0.0333
v  0.0415 -0.0224 -0.0059
v  0.0184 -0.0190 -0.0391
v  0.0212 -0.0290 -0.0313
v  0.0168 -0.0370 -0.0238
v  -0.0038 -0.0388 -0.0255
v  0.0157 -0.0429 -0.0119
v  0.0292 -0.0345 -0.0136
# 115 vertices

vn -0.7021 0.7089 -0.0679
vn -0.3351 0.9321 0.1371
vn -0.2523 0.9545 -0.1591
vn -0.6667 0.6864 0.2904
vn -0.0241 0.9987 0.0438
vn -0.3359 0.7875 -0.5167
vn -0.5663 0.7452 -0.3523
vn -0.2837 0.8452 0.4530
vn -0.3899 0.5783 0.7166
vn -0.0042 0.7210 0.6929
vn -0.9241 0.3607 0.1262
vn -0.7594 0.4415 0.4778
vn -0.5352 0.2643 0.8023
vn -0.8453 0.1562 0.5110
vn -0.0757 0.4488 0.8904
vn -0.2468 0.1123 0.9625
vn 0.3208 0.6424 0.6961
vn 0.0321 0.9938 0.1066
vn 0.0308 0.9475 0.3182
vn 0.1944 0.8871 0.4187
vn 0.1740 0.9838 0.0429
vn 0.4489 0.8313 0.3277
vn 0.5952 0.7977 0.0971
vn 0.8372 0.5109 0.1952
vn 0.0465 0.9742 -0.2211
vn -0.9000 0.3496 -0.2604
vn -0.7753 0.5266 -0.3487
vn -0.6247 0.4695 -0.6240
vn -0.8236 0.0072 -0.5671
vn -0.6172 0.1387 -0.7745
vn -0.9288 -0.2255 0.2941
vn -0.9886 -0.0166 0.1494
vn -0.8079 -0.1880 0.5585
vn -0.9835 0.0018 -0.1807
vn -0.6003 -0.1899 0.7769
vn -0.7780 -0.5011 0.3790
vn -0.9311 -0.3554 -0.0823
vn -0.7974 -0.6029 -0.0257
vn -0.7843 -0.3964 -0.4773
vn -0.6061 -0.2841 -0.7429
vn -0.6884 -0.6449 -0.3321
vn -0.4281 -0.5519 -0.7156
vn -0.4978 -0.7088 -0.4998
vn -0.0740 0.8296 -0.5535
vn -0.0905 0.6314 -0.7702
vn -0.3178 0.5437 -0.7768
vn 0.3199 0.9057 -0.2782
vn 0.5397 0.8229 -0.1775
vn 0.5803 0.6684 -0.4653
vn 0.7993 0.5669 -0.1993
vn 0.3969 0.6989 -0.5950
vn 0.1745 0.8235 -0.5398
vn 0.2248 0.5474 -0.8061
vn -0.0863 0.3812 -0.9205
vn 0.2626 0.2813 -0.9230
vn 0.7501 0.4246 -0.5070
vn 0.5919 0.4300 -0.6817
vn 0.7812 0.1932 -0.5937
vn 0.6146 0.2337 -0.7534
vn 0.4793 0.1857 -0.8578
vn -0.3970 0.2931 -0.8698
vn -0.4846 -0.0456 -0.8736
vn -0.2370 0.0464 -0.9704
vn 0.0486 0.1250 -0.9910
vn -0.2391 -0.3531 -0.9045
vn 0.3563 -0.0705 -0.9317
vn 0.0322 -0.1389 -0.9898
vn 0.1197 -0.4215 -0.8989
vn -0.0047 -0.6857 -0.7279
vn 0.6575 0.0201 -0.7532
vn 0.4551 0.4548 0.7655
vn 0.1211 0.2483 0.9611
vn -0.2534 -0.1800 0.9505
vn 0.0775 -0.1361 0.9877
vn 0.3398 0.0306 0.9400
vn 0.0067 -0.5117 0.8591
vn -0.2644 -0.4819 0.8354
vn 0.3271 -0.3762 0.8669
vn 0.7557 0.4627 0.4635
vn 0.5501 0.1782 0.8158
vn 0.7499 0.2367 0.6178
vn 0.9313 0.0651 0.3584
vn 0.5937 -0.2261 0.7722
vn 0.7924 -0.1757 0.5841
vn 0.6440 -0.5276 0.5540
vn 0.2974 -0.7024 0.6467
vn 0.9324 -0.3057 0.1929
vn 0.7585 -0.5864 0.2844
vn 0.4526 -0.8095 0.3739
vn -0.5149 -0.5052 0.6925
vn -0.5792 -0.7821 0.2299
vn -0.4940 -0.6954 0.5219
vn -0.1852 -0.7570 0.6267
vn 0.0413 -0.9053 0.4227
vn -0.2269 -0.9364 0.2676
vn -0.3112 -0.9503 -0.0110
vn -0.5565 -0.8266 -0.0837
vn -0.3323 -0.8973 -0.2907
vn 0.0126 -0.9954 -0.0947
vn 0.3246 -0.9355 0.1397
vn 0.6428 -0.7660 0.0053
vn 0.9164 0.3072 -0.2565
vn 0.9801 0.1773 -0.0890
vn 0.9865 0.1278 0.1024
vn 0.9565 -0.0958 -0.2756
vn 0.8452 -0.0068 -0.5344
vn 0.8032 -0.4155 -0.4270
vn 0.6472 -0.2992 -0.7012
vn 0.8729 -0.4722 -0.1230
vn 0.3928 -0.3707 -0.8416
vn 0.4424 -0.6247 -0.6435
vn 0.3065 -0.8099 -0.5002
vn -0.0915 -0.8539 -0.5123
vn 0.2895 -0.9242 -0.2493
vn 0.6152 -0.7264 -0.3064
# 115 vertex normals

vt 0.4019 0.7639 -0.1409
vt 0.4455 0.6810 -0.1409
vt 0.4949 0.7419 -0.1409
vt 0.3748 0.6971 -0.1409
vt 0.5249 0.6779 -0.1409
vt 0.4880 0.8120 -0.1409
vt 0.4383 0.8075 -0.1409
vt 0.4292 0.6343 -0.1409
vt 0.3598 0.6063 -0.1409
vt 0.4183 0.5651 -0.1409
vt 0.3120 0.7478 -0.1409
vt 0.3171 0.6839 -0.1409
vt 0.2898 0.6122 -0.1409
vt 0.2772 0.6800 -0.1409
vt 0.3406 0.5437 -0.1409
vt 0.2670 0.5561 -0.1409
vt 0.4449 0.5067 -0.1409
vt 0.5165 0.6403 -0.1409
vt 0.4772 0.6048 -0.1409
vt 0.4948 0.5664 -0.1409
vt 0.5644 0.6450 -0.1409
vt 0.5383 0.5525 -0.1409
vt 0.6015 0.5857 -0.1409
vt 0.4897 0.3867 -0.1642
vt 0.4776 0.4719 -0.1642
vt 0.4020 0.4327 -0.1642
vt 0.5625 0.7190 -0.1409
vt 0.3249 0.8259 -0.1409
vt 0.3841 0.8313 -0.1409
vt 0.4045 0.8767 -0.1409
vt 0.2812 0.9033 -0.1409
vt 0.3341 0.9358 -0.1409
vt 0.2013 0.7267 -0.1409
vt 0.2406 0.7693 -0.1409
vt 0.2154 0.6775 -0.1409
vt 0.2575 0.8255 -0.1409
vt 0.2073 0.6392 -0.1409
vt 0.1493 0.7117 -0.1409
vt 0.1837 0.8122 -0.1409
vt 0.1363 0.7959 -0.1409
vt 0.1886 0.9018 -0.1409
vt 0.2212 0.9658 0.1409
vt 0.1243 0.8649 -0.1409
vt 0.1343 0.9727 -0.1409
vt 0.0886 0.9092 -0.1409
vt 0.5505 0.7904 -0.1409
vt 0.5447 0.8638 -0.1409
vt 0.4787 0.8966 -0.1409
vt 0.5944 0.5641 -0.1642
vt 0.5420 0.5117 -0.1642
vt 0.6113 0.4946 -0.1642
vt 0.6262 0.6319 -0.1409
vt 0.6029 0.6863 -0.1409
vt 0.5594 0.4375 -0.1642
vt 0.6637 0.5273 -0.1642
vt 0.5959 0.7668 -0.1409
vt 0.6765 0.5714 -0.1642
vt 0.7333 0.5082 -0.1642
vt 0.7884 0.5563 -0.1642
vt 0.8191 0.5029 -0.1642
vt 0.7700 0.4473 -0.1642
vt 0.6327 0.4359 -0.1642
vt 0.6737 0.4520 -0.1642
vt 0.6816 0.3935 -0.1642
vt 0.7027 0.4103 -0.1642
vt 0.7401 0.4156 -0.1642
vt 0.4055 0.9488 -0.1409
vt 0.3079 0.9882 -0.1409
vt 0.8881 0.4199 -0.1642
vt 0.9501 0.4118 -0.1642
vt 0.9018 0.5032 -0.1642
vt 0.8496 0.5570 -0.1642
vt 0.8223 0.4257 -0.1642
vt 0.9066 0.3364 -0.1642
vt 0.7845 0.3736 -0.1642
vt 0.8462 0.3697 -0.1642
vt 0.8395 0.3174 -0.1642
vt 0.9916 0.3448 0.1642
vt 0.9542 0.2728 -0.1642
vt 0.8586 0.2618 -0.1642
vt 0.7119 0.3728 -0.1642
vt 0.4185 0.4578 0.0381
vt 0.3124 0.5050 -0.1409
vt 0.2171 0.5660 -0.1409
vt 0.2202 0.4843 -0.1409
vt 0.2616 0.4355 -0.1409
vt 0.1388 0.5185 -0.1409
vt 0.1480 0.5763 -0.1409
vt 0.1573 0.4416 -0.1409
vt 0.4515 0.3300 -0.1642
vt 0.3714 0.2906 0.0444
vt 0.4283 0.2262 -0.1642
vt 0.4611 0.2625 -0.1642
vt 0.5248 0.2658 -0.1642
vt 0.4045 0.1513 -0.1642
vt 0.4879 0.1551 -0.1642
vt 0.4797 0.0851 -0.1642
vt 0.5103 0.1984 -0.1642
vt 0.5643 0.1292 -0.1642
vt 0.5861 0.0563 -0.1642
vt 0.5889 0.2266 -0.1642
vt 0.6093 0.1664 -0.1642
vt 0.6389 0.0985 -0.1642
vt 0.1485 0.6278 -0.1409
vt 0.0865 0.7258 -0.1409
vt 0.1040 0.6707 -0.1409
vt 0.0812 0.5986 -0.1409
vt 0.0169 0.5609 -0.1409
vt 0.0244 0.6689 -0.1409
vt 0.0259 0.7620 -0.1409
vt 0.0759 0.7883 -0.1409
vt 0.0355 0.8614 -0.1409
vt 0.8533 0.0516 -0.1642
vt 0.7848 0.1219 -0.1642
vt 0.7932 0.0112 -0.1642
vt 0.8973 0.1346 -0.1642
vt 0.0629 0.4692 -0.1409
vt 0.6978 0.0275 -0.1642
vt 0.6946 0.1128 -0.1642
vt 0.6696 0.1714 -0.1642
vt 0.5892 0.3845 -0.1642
vt 0.5860 0.3455 -0.1642
vt 0.5584 0.3086 -0.1642
vt 0.6349 0.3079 -0.1642
vt 0.6790 0.3513 -0.1642
vt 0.6849 0.2729 -0.1642
vt 0.7358 0.3121 -0.1642
vt 0.6484 0.2402 -0.1642
vt 0.7893 0.3137 -0.1642
vt 0.7760 0.2633 -0.1642
vt 0.7808 0.2199 -0.1642
vt 0.8643 0.2012 -0.1642
vt 0.7620 0.1684 -0.1642
vt 0.7153 0.2082 -0.1642
vt 0.9496 0.1871 -0.1642
# 135 texture coords

g Orange_03
usemtl _Orange_03default
s 1
f 1/1/1 2/2/2 3/3/3 
f 4/4/4 2/2/2 1/1/1 
f 2/2/2 5/5/5 3/3/3 
f 6/6/6 7/7/7 3/3/3 
f 7/7/7 1/1/1 3/3/3 
f 8/8/8 9/9/9 10/10/10 
f 9/9/9 8/8/8 4/4/4 
f 11/11/11 12/12/12 4/4/4 
f 9/9/9 4/4/4 12/12/12 
f 13/13/13 9/9/9 12/12/12 
f 13/13/13 12/12/12 14/14/14 
f 15/15/15 9/9/9 16/16/16 
f 9/9/9 13/13/13 16/16/16 
f 15/15/15 17/17/17 10/10/10 
f 10/10/10 9/9/9 15/15/15 
f 18/18/18 19/19/19 20/20/20 
f 21/21/21 5/5/5 18/18/18 
f 18/18/18 22/22/22 21/21/21 
f 22/22/22 18/18/18 20/20/20 
f 23/23/23 21/21/21 22/22/22 
f 17/17/17 19/19/19 10/10/10 
f 20/20/20 19/19/19 17/17/17 
f 24/24/24 23/25/23 22/26/22 
f 17/17/17 22/22/22 20/20/20 
f 2/2/2 18/18/18 5/5/5 
f 4/4/4 8/8/8 2/2/2 
f 19/19/19 2/2/2 8/8/8 
f 19/19/19 8/8/8 10/10/10 
f 18/18/18 2/2/2 19/19/19 
f 5/5/5 25/27/25 3/3/3 
f 21/21/21 25/27/25 5/5/5 
f 1/1/1 11/11/11 4/4/4 
f 1/1/1 26/28/26 11/11/11 
f 27/29/27 26/28/26 1/1/1 
f 1/1/1 7/7/7 27/29/27 
f 27/29/27 7/7/7 28/30/28 
f 28/30/28 26/28/26 27/29/27 
f 28/30/28 7/7/7 6/6/6 
f 26/28/26 28/30/28 29/31/29 
f 30/32/30 29/31/29 28/30/28 
f 12/12/12 11/11/11 14/14/14 
f 31/33/31 14/14/14 32/34/32 
f 32/34/32 14/14/14 11/11/11 
f 33/35/33 14/14/14 31/33/31 
f 32/34/32 11/11/11 34/36/34 
f 14/14/14 35/37/35 13/13/13 
f 35/37/35 14/14/14 33/35/33 
f 31/33/31 36/38/36 33/35/33 
f 31/33/31 32/34/32 37/39/37 
f 37/39/37 38/40/38 36/38/36 
f 36/38/36 31/33/31 37/39/37 
f 34/36/34 11/11/11 26/28/26 
f 32/34/32 34/36/34 37/39/37 
f 29/31/29 34/36/34 26/28/26 
f 39/41/39 37/39/37 34/36/34 
f 40/42/40 39/41/39 29/31/29 
f 39/41/39 34/36/34 29/31/29 
f 38/40/38 37/39/37 41/43/41 
f 41/43/41 37/39/37 39/41/39 
f 41/43/41 39/41/39 42/44/42 
f 43/45/43 41/43/41 42/44/42 
f 44/46/44 6/6/6 3/3/3 
f 3/3/3 25/27/25 44/46/44 
f 6/6/6 44/46/44 45/47/45 
f 46/48/46 28/30/28 6/6/6 
f 6/6/6 45/47/45 46/48/46 
f 47/49/47 48/50/48 49/51/49 
f 48/52/48 47/53/47 21/21/21 
f 49/51/49 48/50/48 50/54/50 
f 48/52/48 21/21/21 23/23/23 
f 48/50/48 23/25/23 50/54/50 
f 49/51/49 51/55/51 47/49/47 
f 21/21/21 47/53/47 25/27/25 
f 25/27/25 52/56/52 44/46/44 
f 47/49/47 51/55/51 52/57/52 
f 47/53/47 52/56/52 25/27/25 
f 53/58/53 52/57/52 51/55/51 
f 44/46/44 52/56/52 45/47/45 
f 45/59/45 52/57/52 53/58/53 
f 54/60/54 45/59/45 53/58/53 
f 53/58/53 55/61/55 54/60/54 
f 56/62/56 57/63/57 49/51/49 
f 57/63/57 51/55/51 49/51/49 
f 50/54/50 56/62/56 49/51/49 
f 58/64/58 57/63/57 56/62/56 
f 59/65/59 57/63/57 58/64/58 
f 57/63/57 53/58/53 51/55/51 
f 53/58/53 57/63/57 55/61/55 
f 57/63/57 60/66/60 55/61/55 
f 59/65/59 60/66/60 57/63/57 
f 61/67/61 28/30/28 46/48/46 
f 61/67/61 30/32/30 28/30/28 
f 40/42/40 29/31/29 62/68/62 
f 30/32/30 61/67/61 62/68/62 
f 30/32/30 62/68/62 29/31/29 
f 63/69/63 62/70/62 61/71/61 
f 54/60/54 61/71/61 46/72/46 
f 45/59/45 54/60/54 46/72/46 
f 63/69/63 54/60/54 64/73/64 
f 54/60/54 55/61/55 64/73/64 
f 61/71/61 54/60/54 63/69/63 
f 65/74/65 62/70/62 63/69/63 
f 64/73/64 55/61/55 66/75/66 
f 60/66/60 66/75/66 55/61/55 
f 66/75/66 67/76/67 64/73/64 
f 64/73/64 67/76/67 63/69/63 
f 67/76/67 65/74/65 63/69/63 
f 68/77/68 67/76/67 66/75/66 
f 68/77/68 65/74/65 67/76/67 
f 39/41/39 40/42/40 42/44/42 
f 65/74/65 40/78/40 62/70/62 
f 65/74/65 42/79/42 40/78/40 
f 69/80/69 42/79/42 65/74/65 
f 66/75/66 60/66/60 70/81/70 
f 71/82/71 17/17/17 72/83/72 
f 35/37/35 16/16/16 13/13/13 
f 73/84/73 16/16/16 35/37/35 
f 72/83/72 15/15/15 16/16/16 
f 72/83/72 17/17/17 15/15/15 
f 16/16/16 73/84/73 74/85/74 
f 72/83/72 16/16/16 74/85/74 
f 75/86/75 71/82/71 72/83/72 
f 75/86/75 72/83/72 74/85/74 
f 76/87/76 73/84/73 77/88/77 
f 78/89/78 75/86/75 74/85/74 
f 74/85/74 73/84/73 76/87/76 
f 78/89/78 74/85/74 76/87/76 
f 79/90/79 71/91/71 80/92/80 
f 81/93/81 79/90/79 80/92/80 
f 71/82/71 22/22/22 17/17/17 
f 22/26/22 71/91/71 79/90/79 
f 79/90/79 24/24/24 22/26/22 
f 81/93/81 82/94/82 79/90/79 
f 80/92/80 75/95/75 83/96/83 
f 80/92/80 71/91/71 75/95/75 
f 78/97/78 83/96/83 75/95/75 
f 84/98/84 81/93/81 80/92/80 
f 80/92/80 83/96/83 84/98/84 
f 84/98/84 82/94/82 81/93/81 
f 83/96/83 85/99/85 84/98/84 
f 78/97/78 86/100/86 85/99/85 
f 78/97/78 85/99/85 83/96/83 
f 87/101/87 82/94/82 84/98/84 
f 88/102/88 85/99/85 89/103/89 
f 85/99/85 87/101/87 84/98/84 
f 88/102/88 87/101/87 85/99/85 
f 77/88/77 35/37/35 90/104/90 
f 77/88/77 73/84/73 35/37/35 
f 35/37/35 33/35/33 90/104/90 
f 91/105/91 92/106/92 36/38/36 
f 92/106/92 90/104/90 36/38/36 
f 90/104/90 33/35/33 36/38/36 
f 77/88/77 93/107/93 76/87/76 
f 93/107/93 94/108/94 76/87/76 
f 92/106/92 91/105/91 95/109/95 
f 77/88/77 92/106/92 93/107/93 
f 92/106/92 77/88/77 90/104/90 
f 92/106/92 95/109/95 93/107/93 
f 91/105/91 36/38/36 38/40/38 
f 93/107/93 95/109/95 94/108/94 
f 96/110/96 95/109/95 91/105/91 
f 41/43/41 97/111/97 38/40/38 
f 91/105/91 97/111/97 96/110/96 
f 91/105/91 38/40/38 97/111/97 
f 41/43/41 43/45/43 98/112/98 
f 97/111/97 41/43/41 98/112/98 
f 97/111/97 98/112/98 96/110/96 
f 96/113/96 99/114/99 95/115/95 
f 98/116/98 99/114/99 96/113/96 
f 76/87/76 86/117/86 78/89/78 
f 86/117/86 76/87/76 94/108/94 
f 89/103/89 86/100/86 94/118/94 
f 94/118/94 100/119/100 89/103/89 
f 99/114/99 94/118/94 95/115/95 
f 89/103/89 101/120/101 88/102/88 
f 89/103/89 85/99/85 86/100/86 
f 100/119/100 101/120/101 89/103/89 
f 99/114/99 100/119/100 94/118/94 
f 50/54/50 24/24/24 102/121/102 
f 103/122/103 102/121/102 24/24/24 
f 50/54/50 23/25/23 24/24/24 
f 104/123/104 79/90/79 82/94/82 
f 103/122/103 24/24/24 104/123/104 
f 104/123/104 24/24/24 79/90/79 
f 58/64/58 56/62/56 102/121/102 
f 105/124/105 58/64/58 102/121/102 
f 102/121/102 56/62/56 50/54/50 
f 106/125/106 58/64/58 105/124/105 
f 70/81/70 60/66/60 59/65/59 
f 70/81/70 58/64/58 106/125/106 
f 87/101/87 104/123/104 82/94/82 
f 103/122/103 105/124/105 102/121/102 
f 104/123/104 105/124/105 103/122/103 
f 105/124/105 107/126/107 106/125/106 
f 106/125/106 108/127/108 70/81/70 
f 107/126/107 105/124/105 109/128/109 
f 106/125/106 107/126/107 108/127/108 
f 104/123/104 87/101/87 105/124/105 
f 101/120/101 109/128/109 88/102/88 
f 109/128/109 105/124/105 87/101/87 
f 87/101/87 88/102/88 109/128/109 
f 108/127/108 110/129/110 66/75/66 
f 110/129/110 68/77/68 66/75/66 
f 110/129/110 108/127/108 111/130/111 
f 65/74/65 68/77/68 69/80/69 
f 111/130/111 69/80/69 68/77/68 
f 68/77/68 110/129/110 111/130/111 
f 112/131/112 113/132/113 69/80/69 
f 112/131/112 114/133/114 113/132/113 
f 99/114/99 113/132/113 114/133/114 
f 107/126/107 111/130/111 108/127/108 
f 115/134/115 112/131/112 111/130/111 
f 111/130/111 107/126/107 115/134/115 
f 112/131/112 69/80/69 111/130/111 
f 98/116/98 43/135/43 113/132/113 
f 42/79/42 113/132/113 43/135/43 
f 113/132/113 42/79/42 69/80/69 
f 98/116/98 113/132/113 99/114/99 
f 108/127/108 66/75/66 70/81/70 
f 101/120/101 100/119/100 114/133/114 
f 115/134/115 109/128/109 101/120/101 
f 101/120/101 114/133/114 115/134/115 
f 114/133/114 100/119/100 99/114/99 
f 112/131/112 115/134/115 114/133/114 
f 107/126/107 109/128/109 115/134/115 
f 58/64/58 70/81/70 59/65/59 
# 0 polygons - 226 triangles

