# 3ds Max Wavefront OBJ Exporter v0.97b - (c)2007 guruware
# File Created: 26.05.2016 01:35:04

mtllib Orange_02.mtl

#
# object Orange_02
#

v  0.0215 0.0211 0.0355
v  0.0054 0.0237 0.0396
v  0.0074 0.0054 0.0466
v  -0.0238 -0.0051 0.0418
v  -0.0116 -0.0225 0.0440
v  -0.0055 -0.0090 0.0474
v  -0.0115 0.0128 0.0427
v  -0.0301 0.0151 0.0328
v  0.0402 -0.0113 0.0262
v  0.0261 -0.0194 0.0382
v  0.0330 -0.0259 0.0296
v  0.0274 -0.0048 0.0394
v  0.0125 -0.0185 0.0453
v  0.0011 -0.0283 0.0423
v  0.0167 -0.0363 0.0339
v  -0.0047 -0.0386 0.0344
v  0.0063 -0.0471 0.0232
v  0.0332 0.0145 0.0300
v  0.0162 0.0059 0.0436
v  0.0470 -0.0010 0.0136
v  0.0437 0.0106 0.0152
v  0.0357 0.0271 0.0160
v  -0.0307 -0.0199 0.0347
v  -0.0243 -0.0324 0.0336
v  -0.0403 -0.0018 0.0267
v  -0.0428 -0.0226 0.0162
v  -0.0453 0.0022 0.0150
v  -0.0172 -0.0434 0.0251
v  -0.0118 -0.0486 0.0186
v  -0.0257 -0.0460 0.0064
v  -0.0353 -0.0333 0.0195
v  -0.0472 -0.0135 0.0014
v  -0.0391 -0.0335 0.0014
v  -0.0353 -0.0363 -0.0122
v  -0.0411 -0.0245 -0.0164
v  -0.0069 0.0297 0.0335
v  0.0016 0.0358 0.0290
v  -0.0227 0.0298 0.0273
v  -0.0099 0.0379 0.0247
v  -0.0070 0.0435 0.0187
v  -0.0170 0.0437 0.0174
v  -0.0292 0.0346 0.0065
v  -0.0370 0.0213 0.0175
v  -0.0236 0.0418 0.0131
v  -0.0098 0.0492 0.0059
v  0.0179 0.0346 0.0240
v  0.0272 0.0383 0.0095
v  0.0136 0.0471 0.0087
v  0.0008 0.0476 0.0110
v  0.0362 0.0308 0.0033
v  0.0243 0.0425 -0.0041
v  0.0170 0.0446 -0.0132
v  0.0146 0.0491 -0.0026
v  0.0027 0.0487 -0.0002
v  0.0073 0.0509 -0.0090
v  -0.0196 0.0456 -0.0003
v  -0.0040 0.0499 -0.0009
v  -0.0173 0.0476 -0.0113
v  -0.0297 0.0323 -0.0097
v  -0.0231 0.0401 -0.0143
v  0.0138 0.0378 -0.0265
v  0.0006 0.0410 -0.0247
v  -0.0028 0.0480 -0.0151
v  -0.0109 0.0399 -0.0248
v  -0.0207 0.0333 -0.0269
v  -0.0438 0.0146 0.0016
v  -0.0383 0.0232 -0.0009
v  -0.0470 0.0029 0.0025
v  -0.0418 0.0107 -0.0150
v  -0.0449 0.0024 -0.0121
v  -0.0406 0.0053 -0.0229
v  -0.0336 0.0228 -0.0233
v  -0.0332 0.0041 -0.0344
v  -0.0457 -0.0091 -0.0136
v  -0.0409 -0.0006 -0.0251
v  -0.0400 -0.0124 -0.0272
v  -0.0276 0.0212 -0.0328
v  0.0465 -0.0144 0.0117
v  0.0347 -0.0328 0.0206
v  0.0408 -0.0317 0.0040
v  0.0253 -0.0436 0.0151
v  0.0070 -0.0507 0.0052
v  0.0268 -0.0391 -0.0218
v  0.0224 -0.0466 -0.0013
v  0.0472 0.0080 -0.0031
v  0.0453 -0.0184 -0.0131
v  0.0454 -0.0022 -0.0168
v  0.0377 -0.0318 -0.0137
v  0.0301 -0.0274 -0.0319
v  0.0124 -0.0472 -0.0168
v  0.0364 -0.0123 -0.0321
v  -0.0070 -0.0509 0.0090
v  -0.0129 -0.0496 -0.0046
v  -0.0105 -0.0479 -0.0173
v  -0.0262 -0.0420 -0.0177
v  -0.0020 -0.0415 -0.0314
v  -0.0165 -0.0391 -0.0304
v  -0.0302 -0.0259 -0.0328
v  -0.0152 -0.0259 -0.0412
v  0.0125 -0.0368 -0.0349
v  0.0143 -0.0193 -0.0446
v  -0.0019 -0.0261 -0.0439
v  0.0417 0.0156 -0.0167
v  0.0305 0.0317 -0.0189
v  0.0358 0.0149 -0.0275
v  0.0219 0.0177 -0.0374
v  0.0064 0.0275 -0.0385
v  -0.0125 0.0246 -0.0387
v  -0.0012 0.0130 -0.0456
v  0.0263 -0.0028 -0.0409
v  0.0120 -0.0012 -0.0470
v  -0.0067 -0.0104 -0.0481
v  -0.0198 0.0026 -0.0445
v  -0.0244 -0.0100 -0.0410
v  -0.0196 0.0125 -0.0420
# 115 vertices

vn 0.4388 0.4876 0.7548
vn 0.0975 0.5297 0.8426
vn 0.1266 0.1910 0.9734
vn -0.4825 0.0307 0.8754
vn -0.2275 -0.3292 0.9165
vn -0.1149 -0.0402 0.9926
vn -0.2532 0.3375 0.9066
vn -0.6110 0.3637 0.7032
vn 0.8162 -0.0951 0.5699
vn 0.5389 -0.2667 0.7991
vn 0.6807 -0.4035 0.6114
vn 0.5724 0.0358 0.8192
vn 0.2417 -0.2418 0.9397
vn 0.0258 -0.4742 0.8800
vn 0.3303 -0.6466 0.6877
vn -0.0776 -0.6979 0.7120
vn 0.1387 -0.8910 0.4324
vn 0.6883 0.3183 0.6519
vn 0.3824 0.2030 0.9015
vn 0.9557 0.0743 0.2848
vn 0.8936 0.2982 0.3354
vn 0.7422 0.5503 0.3825
vn -0.6542 -0.2523 0.7130
vn -0.4885 -0.5531 0.6749
vn -0.8216 0.0612 0.5668
vn -0.8929 -0.3112 0.3253
vn -0.9420 0.1457 0.3023
vn -0.3751 -0.7782 0.5037
vn -0.1939 -0.9212 0.3372
vn -0.5043 -0.8575 0.1018
vn -0.7015 -0.5867 0.4045
vn -0.9860 -0.1662 0.0130
vn -0.8243 -0.5659 0.0168
vn -0.7278 -0.6425 -0.2397
vn -0.8704 -0.3873 -0.3039
vn -0.1939 0.6035 0.7734
vn 0.0729 0.7390 0.6697
vn -0.4769 0.5728 0.6667
vn -0.1737 0.6996 0.6931
vn -0.0206 0.8386 0.5443
vn -0.3051 0.8115 0.4985
vn -0.7942 0.6074 0.0167
vn -0.8091 0.4742 0.3473
vn -0.6368 0.7272 0.2561
vn -0.1771 0.9719 0.1549
vn 0.3799 0.7123 0.5901
vn 0.5843 0.7549 0.2980
vn 0.2958 0.9222 0.2489
vn 0.0696 0.9314 0.3572
vn 0.8122 0.5824 0.0344
vn 0.5992 0.7981 -0.0630
vn 0.4356 0.8280 -0.3531
vn 0.2583 0.8551 0.4495
vn 0.1301 0.9889 0.0716
vn 0.2582 0.9659 0.0185
vn -0.5648 0.8250 0.0166
vn 0.0125 0.9999 -0.0041
vn -0.4463 0.8594 -0.2492
vn -0.7696 0.6144 -0.1741
vn -0.7084 0.6228 -0.3323
vn 0.3161 0.7119 -0.6272
vn 0.0155 0.7651 -0.6436
vn -0.0442 0.9160 -0.3986
vn -0.2196 0.7382 -0.6379
vn -0.4951 0.6652 -0.5588
vn -0.9154 0.4026 -0.0045
vn -0.8282 0.5580 -0.0534
vn -0.9893 0.1462 0.0018
vn -0.9039 0.3452 -0.2525
vn -0.9621 0.1754 -0.2088
vn -0.8697 0.2520 -0.4244
vn -0.7715 0.5072 -0.3842
vn -0.7036 0.1509 -0.6944
vn -0.9709 -0.0599 -0.2320
vn -0.8727 0.1099 -0.4758
vn -0.8183 -0.1438 -0.5565
vn -0.6013 0.4479 -0.6617
vn 0.9563 -0.2085 0.2051
vn 0.7140 -0.5730 0.4021
vn 0.8175 -0.5735 0.0528
vn 0.4868 -0.8319 0.2664
vn 0.1392 -0.9896 0.0373
vn 0.5319 -0.7527 -0.3878
vn 0.4482 -0.8923 -0.0543
vn 0.9738 0.2218 -0.0493
vn 0.9327 -0.2621 -0.2479
vn 0.9374 0.0423 -0.3457
vn 0.7502 -0.6105 -0.2542
vn 0.6120 -0.4532 -0.6482
vn 0.2074 -0.9311 -0.3003
vn 0.7466 -0.1283 -0.6527
vn -0.0816 -0.9933 0.0820
vn -0.1933 -0.9749 -0.1108
vn -0.1468 -0.9419 -0.3018
vn -0.5023 -0.7927 -0.3454
vn -0.0292 -0.7901 -0.6122
vn -0.3155 -0.7182 -0.6202
vn -0.6145 -0.4213 -0.6670
vn -0.3129 -0.4274 -0.8482
vn 0.2451 -0.6793 -0.6917
vn 0.2758 -0.2758 -0.9208
vn -0.0261 -0.4388 -0.8982
vn 0.8740 0.3668 -0.3186
vn 0.6666 0.6152 -0.4209
vn 0.7247 0.3250 -0.6075
vn 0.4531 0.3951 -0.7991
vn 0.1455 0.5526 -0.8207
vn -0.2298 0.5387 -0.8106
vn 0.0107 0.2942 -0.9557
vn 0.5450 0.0537 -0.8366
vn 0.2297 0.0813 -0.9699
vn -0.1104 -0.1105 -0.9877
vn -0.3920 0.0975 -0.9148
vn -0.5191 -0.1303 -0.8447
vn -0.3899 0.3085 -0.8677
# 115 vertex normals

vt 0.6988 0.2568 0.0000
vt 0.6371 0.2763 0.0000
vt 0.6208 0.2020 0.0000
vt 0.4843 0.2121 0.0000
vt 0.5205 0.1105 0.0000
vt 0.5600 0.1591 0.0000
vt 0.5579 0.2646 0.0000
vt 0.4951 0.3364 0.0000
vt 0.7862 0.1320 0.0000
vt 0.7065 0.0961 0.0000
vt 0.7587 0.0698 0.0000
vt 0.7058 0.1550 0.0000
vt 0.6358 0.1004 0.0000
vt 0.5832 0.0632 0.0000
vt 0.6822 0.0173 0.0000
vt 0.0396 0.8013 0.0000
vt 0.0078 0.6897 0.0000
vt 0.0625 0.6942 0.0000
vt 0.1025 0.7703 0.0000
vt 0.7471 0.2340 0.0000
vt 0.6568 0.1996 0.0000
vt 0.8428 0.1821 0.0000
vt 0.8234 0.2252 0.0000
vt 0.7922 0.2895 0.0000
vt 0.0274 0.5959 0.0000
vt 0.0888 0.4779 0.0000
vt 0.1200 0.5454 0.0000
vt 0.1003 0.6071 0.0000
vt 0.1957 0.4686 0.0000
vt 0.2073 0.5567 0.0000
vt 0.1789 0.3875 0.0000
vt 0.2567 0.4642 0.0000
vt 0.1223 0.6689 0.0000
vt 0.1419 0.7052 0.0000
vt 0.2004 0.6682 0.0000
vt 0.1717 0.5959 0.0000
vt 0.2755 0.5395 0.0000
vt 0.2414 0.6144 0.0000
vt 0.2831 0.6400 0.0000
vt 0.3172 0.6078 0.0000
vt 0.6090 0.3299 0.0000
vt 0.6506 0.3373 0.0000
vt 0.5609 0.3811 0.0000
vt 0.6244 0.3789 0.0000
vt 0.6531 0.3996 0.0000
vt 0.6243 0.4272 0.0000
vt 0.5880 0.4998 0.0000
vt 0.5011 0.4385 0.0000
vt 0.6086 0.4548 0.0000
vt 0.6813 0.4512 0.0000
vt 0.7157 0.3215 0.0000
vt 0.7812 0.3445 0.0000
vt 0.7436 0.3920 0.0000
vt 0.6991 0.4091 0.0000
vt 0.8272 0.3203 0.0000
vt 0.8113 0.3893 0.0000
vt 0.8175 0.4361 0.0000
vt 0.7762 0.4180 0.0000
vt 0.7322 0.4401 0.0000
vt 0.7689 0.4486 0.0000
vt 0.6614 0.4952 0.0000
vt 0.7166 0.4564 0.0000
vt 0.7060 0.5206 0.0000
vt 0.6474 0.5775 0.0000
vt 0.6974 0.5573 0.0000
vt 0.8607 0.4766 0.0000
vt 0.8107 0.5160 0.0000
vt 0.7627 0.4955 0.0000
vt 0.7715 0.5547 0.0000
vt 0.7469 0.6015 0.0000
vt 0.2888 0.3848 0.0000
vt 0.3386 0.4497 0.0000
vt 0.3924 0.3614 0.0000
vt 0.3804 0.4273 0.0000
vt 0.3066 0.4854 0.0000
vt 0.4587 0.4256 0.0000
vt 0.3928 0.5028 0.0000
vt 0.3604 0.5150 0.0000
vt 0.4042 0.5418 0.0000
vt 0.4674 0.5007 0.0000
vt 0.4453 0.5846 0.0000
vt 0.3362 0.5497 0.0000
vt 0.3969 0.5604 0.0000
vt 0.3738 0.5936 0.0000
vt 0.5445 0.5038 0.0000
vt 0.5048 0.5532 0.0000
vt 0.8566 0.1310 0.0000
vt 0.8008 0.0387 0.0000
vt 0.8948 0.0595 0.0000
vt 0.1323 0.8644 0.0000
vt 0.1015 0.9152 0.0000
vt 0.1734 0.7916 0.0000
vt 0.2064 0.9581 0.0000
vt 0.2995 0.8690 0.0000
vt 0.2036 0.8558 0.0000
vt 0.9008 0.2425 0.0000
vt 0.9709 0.1450 0.0000
vt 0.9718 0.2402 0.0000
vt 0.2935 0.9271 0.0000
vt 0.3449 0.9804 0.0000
vt 0.3679 0.8765 0.0000
vt 0.2618 0.8167 0.0000
vt 0.4279 0.9067 0.0000
vt 0.4451 0.9886 0.0000
vt 0.1719 0.7360 0.0000
vt 0.2277 0.7217 0.0000
vt 0.2693 0.7306 0.0000
vt 0.2909 0.6744 0.0000
vt 0.3225 0.7621 0.0000
vt 0.3303 0.7126 0.0000
vt 0.3719 0.6533 0.0000
vt 0.3916 0.7036 0.0000
vt 0.3453 0.8062 0.0000
vt 0.4244 0.8001 0.0000
vt 0.3962 0.7443 0.0000
vt 0.9318 0.3133 0.0000
vt 0.8891 0.3928 0.0000
vt 0.9680 0.3605 0.0000
vt 0.9677 0.4634 0.0000
vt 0.8972 0.5403 0.0000
vt 0.8347 0.6194 0.0000
vt 0.5499 0.7051 0.0000
vt 0.5686 0.6121 0.0000
vt 0.6193 0.7141 0.0000
vt 0.5877 0.8232 0.0000
vt 0.5509 0.9286 0.0000
vt 0.4884 0.8508 0.0000
vt 0.5026 0.7853 0.0000
vt 0.4576 0.7204 0.0000
vt 0.4828 0.6471 0.0000
vt 0.4362 0.6506 0.0000
vt 0.5108 0.6237 0.0000
# 132 texture coords

g Orange_02
usemtl _Orange_02default
s 1
f 1/1/1 2/2/2 3/3/3 
f 4/4/4 5/5/5 6/6/6 
f 7/7/7 4/4/4 6/6/6 
f 6/6/6 3/3/3 7/7/7 
f 2/2/2 7/7/7 3/3/3 
f 8/8/8 4/4/4 7/7/7 
f 9/9/9 10/10/10 11/11/11 
f 10/10/10 12/12/12 13/13/13 
f 5/5/5 14/14/14 6/6/6 
f 13/13/13 6/6/6 14/14/14 
f 10/10/10 13/13/13 15/15/15 
f 10/10/10 15/15/15 11/11/11 
f 13/13/13 14/14/14 15/15/15 
f 15/16/15 14/17/14 16/18/16 
f 17/19/17 15/16/15 16/18/16 
f 18/20/18 19/21/19 12/12/12 
f 19/21/19 1/1/1 3/3/3 
f 18/20/18 1/1/1 19/21/19 
f 20/22/20 18/20/18 9/9/9 
f 9/9/9 18/20/18 12/12/12 
f 18/20/18 20/22/20 21/23/21 
f 12/12/12 10/10/10 9/9/9 
f 22/24/22 18/20/18 21/23/21 
f 13/13/13 19/21/19 3/3/3 
f 13/13/13 12/12/12 19/21/19 
f 13/13/13 3/3/3 6/6/6 
f 5/25/5 4/26/4 23/27/23 
f 24/28/24 5/25/5 23/27/23 
f 25/29/25 23/27/23 4/26/4 
f 25/29/25 26/30/26 23/27/23 
f 8/31/8 25/29/25 4/26/4 
f 27/32/27 26/30/26 25/29/25 
f 16/18/16 24/28/24 28/33/28 
f 5/25/5 24/28/24 16/18/16 
f 5/25/5 16/18/16 14/17/14 
f 28/33/28 29/34/29 16/18/16 
f 29/34/29 17/19/17 16/18/16 
f 29/34/29 28/33/28 30/35/30 
f 28/33/28 24/28/24 30/35/30 
f 24/28/24 26/30/26 31/36/31 
f 24/28/24 23/27/23 26/30/26 
f 32/37/32 26/30/26 27/32/27 
f 24/28/24 31/36/31 30/35/30 
f 33/38/33 31/36/31 26/30/26 
f 30/35/30 31/36/31 33/38/33 
f 34/39/34 33/38/33 35/40/35 
f 33/38/33 32/37/32 35/40/35 
f 26/30/26 32/37/32 33/38/33 
f 2/2/2 36/41/36 7/7/7 
f 2/2/2 37/42/37 36/41/36 
f 36/41/36 38/43/38 7/7/7 
f 38/43/38 8/8/8 7/7/7 
f 38/43/38 36/41/36 39/44/39 
f 39/44/39 40/45/40 41/46/41 
f 39/44/39 37/42/37 40/45/40 
f 36/41/36 37/42/37 39/44/39 
f 42/47/42 43/48/43 44/49/44 
f 39/44/39 41/46/41 38/43/38 
f 44/49/44 43/48/43 38/43/38 
f 38/43/38 41/46/41 44/49/44 
f 45/50/45 41/46/41 40/45/40 
f 44/49/44 41/46/41 45/50/45 
f 46/51/46 22/24/22 47/52/47 
f 22/24/22 1/1/1 18/20/18 
f 1/1/1 46/51/46 2/2/2 
f 22/24/22 46/51/46 1/1/1 
f 46/51/46 37/42/37 2/2/2 
f 46/51/46 48/53/48 37/42/37 
f 49/54/49 37/42/37 48/53/48 
f 46/51/46 47/52/47 48/53/48 
f 50/55/50 47/52/47 22/24/22 
f 51/56/51 48/53/48 47/52/47 
f 49/54/49 40/45/40 37/42/37 
f 52/57/52 53/58/53 51/56/51 
f 54/59/54 51/56/51 53/58/53 
f 53/58/53 52/57/52 54/59/54 
f 54/59/54 48/53/48 51/56/51 
f 54/59/54 52/57/52 55/60/55 
f 56/61/56 45/50/45 57/62/57 
f 49/54/49 54/59/54 57/62/57 
f 54/59/54 49/54/49 48/53/48 
f 45/50/45 40/45/40 49/54/49 
f 57/62/57 45/50/45 49/54/49 
f 56/61/56 42/47/42 44/49/44 
f 45/50/45 56/61/56 44/49/44 
f 58/63/58 56/61/56 57/62/57 
f 58/63/58 59/64/59 56/61/56 
f 60/65/60 59/64/59 58/63/58 
f 61/66/61 62/67/62 55/60/55 
f 57/62/57 63/68/63 58/63/58 
f 62/67/62 63/68/63 55/60/55 
f 57/62/57 54/59/54 63/68/63 
f 61/66/61 55/60/55 52/57/52 
f 54/59/54 55/60/55 63/68/63 
f 64/69/64 58/63/58 63/68/63 
f 64/69/64 60/65/60 58/63/58 
f 64/69/64 63/68/63 62/67/62 
f 65/70/65 60/65/60 64/69/64 
f 43/71/43 25/29/25 8/31/8 
f 66/72/66 27/32/27 43/71/43 
f 43/71/43 27/32/27 25/29/25 
f 43/48/43 8/8/8 38/43/38 
f 43/71/43 42/73/42 67/74/67 
f 66/72/66 43/71/43 67/74/67 
f 27/32/27 68/75/68 32/37/32 
f 66/72/66 68/75/68 27/32/27 
f 42/73/42 59/76/59 67/74/67 
f 69/77/69 68/75/68 66/72/66 
f 70/78/70 68/75/68 69/77/69 
f 69/77/69 66/72/66 67/74/67 
f 71/79/71 69/77/69 72/80/72 
f 69/77/69 67/74/67 72/80/72 
f 73/81/73 71/79/71 72/80/72 
f 68/75/68 70/78/70 32/37/32 
f 70/78/70 74/82/74 32/37/32 
f 35/40/35 32/37/32 74/82/74 
f 75/83/75 74/82/74 70/78/70 
f 75/83/75 76/84/76 74/82/74 
f 59/64/59 42/47/42 56/61/56 
f 72/80/72 59/76/59 65/85/65 
f 65/85/65 77/86/77 72/80/72 
f 60/65/60 65/70/65 59/64/59 
f 59/76/59 72/80/72 67/74/67 
f 9/9/9 11/11/11 78/87/78 
f 79/88/79 11/11/11 15/15/15 
f 80/89/80 78/87/78 79/88/79 
f 15/16/15 81/90/81 79/91/79 
f 11/11/11 79/88/79 78/87/78 
f 81/90/81 15/16/15 17/19/17 
f 17/19/17 82/92/82 81/90/81 
f 80/93/80 79/91/79 81/90/81 
f 83/94/83 80/93/80 84/95/84 
f 82/92/82 84/95/84 81/90/81 
f 81/90/81 84/95/84 80/93/80 
f 9/9/9 78/87/78 20/22/20 
f 85/96/85 21/23/21 20/22/20 
f 80/89/80 86/97/86 78/87/78 
f 86/97/86 87/98/87 85/96/85 
f 86/97/86 85/96/85 78/87/78 
f 85/96/85 20/22/20 78/87/78 
f 80/93/80 88/99/88 86/100/86 
f 80/93/80 83/94/83 88/99/88 
f 88/99/88 83/94/83 89/101/89 
f 90/102/90 83/94/83 84/95/84 
f 91/103/91 86/100/86 89/101/89 
f 88/99/88 89/101/89 86/100/86 
f 86/100/86 91/103/91 87/104/87 
f 17/19/17 92/105/92 82/92/82 
f 92/105/92 17/19/17 29/34/29 
f 92/105/92 29/34/29 30/35/30 
f 82/92/82 92/105/92 93/106/93 
f 93/106/93 92/105/92 30/35/30 
f 84/95/84 82/92/82 90/102/90 
f 94/107/94 93/106/93 95/108/95 
f 90/102/90 94/107/94 96/109/96 
f 90/102/90 82/92/82 94/107/94 
f 96/109/96 94/107/94 97/110/97 
f 93/106/93 94/107/94 82/92/82 
f 30/35/30 33/38/33 34/39/34 
f 95/108/95 30/35/30 34/39/34 
f 93/106/93 30/35/30 95/108/95 
f 98/111/98 95/108/95 34/39/34 
f 35/40/35 98/111/98 34/39/34 
f 98/111/98 97/110/97 95/108/95 
f 99/112/99 97/110/97 98/111/98 
f 94/107/94 95/108/95 97/110/97 
f 90/102/90 100/113/100 83/94/83 
f 96/109/96 100/113/100 90/102/90 
f 101/114/101 89/101/89 100/113/100 
f 96/109/96 102/115/102 100/113/100 
f 100/113/100 89/101/89 83/94/83 
f 102/115/102 101/114/101 100/113/100 
f 96/109/96 99/112/99 102/115/102 
f 96/109/96 97/110/97 99/112/99 
f 85/96/85 22/24/22 21/23/21 
f 50/55/50 22/24/22 85/96/85 
f 85/96/85 103/116/103 50/55/50 
f 104/117/104 51/56/51 50/55/50 
f 51/56/51 104/117/104 52/57/52 
f 47/52/47 50/55/50 51/56/51 
f 85/96/85 87/98/87 103/116/103 
f 50/55/50 103/116/103 104/117/104 
f 103/116/103 105/118/105 104/117/104 
f 106/119/106 104/117/104 105/118/105 
f 52/57/52 104/117/104 61/66/61 
f 107/120/107 62/67/62 61/66/61 
f 108/121/108 64/69/64 62/67/62 
f 108/121/108 62/67/62 107/120/107 
f 106/119/106 107/120/107 61/66/61 
f 106/119/106 61/66/61 104/117/104 
f 109/122/109 108/123/108 107/124/107 
f 106/125/106 109/122/109 107/124/107 
f 105/118/105 103/116/103 87/98/87 
f 105/126/105 87/104/87 91/103/91 
f 105/126/105 91/103/91 110/127/110 
f 91/103/91 89/101/89 101/114/101 
f 101/114/101 110/127/110 91/103/91 
f 101/114/101 111/128/111 110/127/110 
f 110/127/110 106/125/106 105/126/105 
f 109/122/109 106/125/106 111/128/111 
f 106/125/106 110/127/110 111/128/111 
f 73/81/73 75/83/75 71/79/71 
f 112/129/112 113/130/113 109/122/109 
f 114/131/114 73/81/73 113/130/113 
f 114/131/114 113/130/113 112/129/112 
f 35/40/35 74/82/74 76/84/76 
f 76/84/76 98/111/98 35/40/35 
f 98/111/98 76/84/76 114/131/114 
f 76/84/76 75/83/75 73/81/73 
f 114/131/114 76/84/76 73/81/73 
f 99/112/99 98/111/98 114/131/114 
f 77/86/77 108/123/108 115/132/115 
f 108/123/108 77/86/77 65/85/65 
f 108/121/108 65/70/65 64/69/64 
f 115/132/115 73/81/73 77/86/77 
f 72/80/72 77/86/77 73/81/73 
f 115/132/115 113/130/113 73/81/73 
f 109/122/109 115/132/115 108/123/108 
f 113/130/113 115/132/115 109/122/109 
f 111/128/111 102/115/102 112/129/112 
f 101/114/101 102/115/102 111/128/111 
f 102/115/102 99/112/99 112/129/112 
f 99/112/99 114/131/114 112/129/112 
f 112/129/112 109/122/109 111/128/111 
f 71/79/71 75/83/75 70/78/70 69/77/69 
# 1 polygons - 224 triangles

